<svg xmlns="http://www.w3.org/2000/svg" version="1.1" xmlns:xlink="http://www.w3.org/1999/xlink" xmlns:svgjs="http://svgjs.dev/svgjs" width="2000" height="2000" viewBox="0 0 2000 2000"><g transform="matrix(1,0,0,1,-0.28443113772425477,-0.28443113772459583)"><svg viewBox="0 0 334 334" data-background-color="#ffffff" preserveAspectRatio="xMidYMid meet" height="2000" width="2000" xmlns="http://www.w3.org/2000/svg" xmlns:xlink="http://www.w3.org/1999/xlink"><g id="tight-bounds" transform="matrix(1,0,0,1,0.04749999999998522,0.04750000000001364)"><svg viewBox="0 0 333.90454557049503 333.90454557049503" height="333.90454557049503" width="333.90454557049503"><rect width="333.905" height="333.905" fill="url(#cf5f90aa-494e-47a8-b938-0a6528062693)" mask="url(#d6d4ffb0-1c44-4659-ab93-6f39729c9747)" data-fill-palette-color="tertiary"></rect><g><svg></svg></g><g><svg viewBox="0 0 333.90454557049503 333.90454557049503" height="333.90454557049503" width="333.90454557049503"><g><path d="M0 166.952c0-92.205 74.747-166.952 166.952-166.952 92.205 0 166.952 74.747 166.953 166.952 0 92.205-74.747 166.952-166.953 166.953-92.205 0-166.952-74.747-166.952-166.953zM166.952 328.809c89.391 0 161.856-72.466 161.857-161.857 0-89.391-72.466-161.856-161.857-161.856-89.391 0-161.856 72.466-161.856 161.856 0 89.391 72.466 161.856 161.856 161.857z" data-fill-palette-color="tertiary" fill="url(#cf5f90aa-494e-47a8-b938-0a6528062693)" stroke="transparent"></path><ellipse rx="160.27418187383762" ry="160.27418187383762" cx="166.95227278524752" cy="166.95227278524752" fill="url(#cf5f90aa-494e-47a8-b938-0a6528062693)" stroke="transparent" stroke-width="0" fill-opacity="1" data-fill-palette-color="tertiary"></ellipse></g><g transform="matrix(1,0,0,1,91.3775304893148,71.17305217166896)"><svg viewBox="0 0 151.14948459186544 191.55844122715712" height="191.55844122715712" width="151.14948459186544"><g><svg viewBox="0 0 151.14948459186544 191.55844122715712" height="191.55844122715712" width="151.14948459186544"><g><svg viewBox="0 0 213.15844122715714 270.14514039621355" height="191.55844122715712" width="151.14948459186544"><g transform="matrix(1,0,0,1,0,150.1839442226444)"><svg viewBox="0 0 213.15844122715714 119.96119617356915" height="119.96119617356915" width="213.15844122715714"><g id="textblocktransform"><svg viewBox="0 0 213.15844122715714 119.96119617356915" height="119.96119617356915" width="213.15844122715714" id="textblock"><g><svg viewBox="0 0 213.15844122715714 79.69104449907564" height="79.69104449907564" width="213.15844122715714"><g transform="matrix(1,0,0,1,0,0)"><svg width="213.15844122715714" viewBox="-0.08296294814800001 -37.5125 154.35296294692304 57.712500000000006" height="79.69104449907564" data-palette-color="#000000"><path d="M18.45-11.6L18.45-11.6Q16.3-11.8 14.03-12.18 11.75-12.55 9.75-13.1L9.75-13.1Q9.65-13.15 9.3-13.25 8.95-13.35 8.95-13.45L8.95-13.45Q8.95-13.6 9.3-13.65 9.65-13.7 9.75-13.7L9.75-13.7Q10.75-13.8 12.3-13.83 13.85-13.85 14.85-13.7L14.85-13.7Q15.8-13.55 17.07-13.45 18.35-13.35 19.65-13.4 20.95-13.45 22.18-13.65 23.4-13.85 24.3-14.25L24.3-14.25Q24.7-14.4 25.2-14.85 25.7-15.3 25.95-15.75L25.95-15.75Q24.35-14.7 22.4-14.45 20.45-14.2 18.32-14.35 16.2-14.5 14.03-14.8 11.85-15.1 9.75-15.2L9.75-15.2Q8.4-15.25 6.98-15.1 5.55-14.95 4.23-14.5 2.9-14.05 1.8-13.3 0.7-12.55 0-11.45L0-11.45Q-0.1-11.2-0.08-11.38-0.05-11.55-0.05-11.65L-0.05-11.65Q0.35-13.65 1.83-14.68 3.3-15.7 5.05-16.25L5.05-16.25Q5.7-18.95 6.55-21.6 7.4-24.25 8.13-26.75 8.85-29.25 9.33-31.6 9.8-33.95 9.75-36.15L9.75-36.15Q9.8-36.25 9.78-36.35 9.75-36.45 9.85-36.45L9.85-36.45Q9.95-36.5 9.98-36.33 10-36.15 10-36.1L10-36.1Q10.65-33.9 10.5-31.53 10.35-29.15 9.78-26.7 9.2-24.25 8.38-21.73 7.55-19.2 6.85-16.65L6.85-16.65 8.15-16.8Q8.4-17.95 8.68-19.15 8.95-20.35 9.25-21.25L9.25-21.25Q9.35-21.55 9.58-22.48 9.8-23.4 10.05-24.7 10.3-26 10.58-27.5 10.85-29 11.03-30.4 11.2-31.8 11.23-32.95 11.25-34.1 11.1-34.75L11.1-34.75Q11.1-35.2 11.15-35.2L11.15-35.2Q11.25-35.2 11.35-35.08 11.45-34.95 11.5-34.85L11.5-34.85Q12.05-34 12.33-32.8 12.6-31.6 12.68-30.28 12.75-28.95 12.63-27.65 12.5-26.35 12.25-25.4L12.25-25.4Q11.65-23.3 10.95-21.1 10.25-18.9 9.45-16.8L9.45-16.8 10.3-16.8 10.55-16.8Q10.75-17.65 11.05-18.5 11.35-19.35 11.6-20.2L11.6-20.2Q12.25-22.55 12.9-25.03 13.55-27.5 13.65-30.35L13.65-30.35Q13.65-30.6 13.7-30.6L13.7-30.6Q13.8-30.6 13.83-30.5 13.85-30.4 13.9-30.3L13.9-30.3Q14.35-29.2 14.33-27.5 14.3-25.8 14-23.93 13.7-22.05 13.23-20.13 12.75-18.2 12.35-16.65L12.35-16.65Q14.2-16.5 15.93-16.25 17.65-16 19.4-15.8L19.4-15.8Q20.05-18.5 20.88-21.13 21.7-23.75 22.43-26.23 23.15-28.7 23.63-31.05 24.1-33.4 24.05-35.55L24.05-35.55Q24.05-35.8 24.15-35.8L24.15-35.8Q24.25-35.8 24.3-35.7 24.35-35.6 24.35-35.55L24.35-35.55Q25-33.3 24.83-30.88 24.65-28.45 24.05-25.95 23.45-23.45 22.6-20.88 21.75-18.3 21.05-15.7L21.05-15.7Q21.35-15.6 21.68-15.65 22-15.7 22.35-15.7L22.35-15.7Q22.55-16.95 22.9-18.28 23.25-19.6 23.55-20.55L23.55-20.55Q23.65-20.85 23.88-21.78 24.1-22.7 24.35-24 24.6-25.3 24.88-26.8 25.15-28.3 25.33-29.73 25.5-31.15 25.53-32.3 25.55-33.45 25.4-34.1L25.4-34.1Q25.3-34.45 25.45-34.5L25.45-34.5Q25.55-34.55 25.65-34.43 25.75-34.3 25.8-34.2L25.8-34.2Q26.35-33.35 26.65-32.15 26.95-30.95 27.03-29.65 27.1-28.35 26.98-27.05 26.85-25.75 26.6-24.8L26.6-24.8Q26-22.55 25.2-20.25 24.4-17.95 23.55-15.7L23.55-15.7 24.8-15.9Q25.05-16.75 25.35-17.68 25.65-18.6 25.9-19.5L25.9-19.5Q26.6-21.9 27.23-24.38 27.85-26.85 27.95-29.65L27.95-29.65Q27.95-29.9 27.95-29.93 27.95-29.95 28-29.95L28-29.95Q28.1-29.95 28.2-29.65L28.2-29.65Q28.8-28.3 28.65-26.15 28.5-24 28.05-21.68 27.6-19.35 27-17.18 26.4-15 26.1-13.7L26.1-13.7Q25.55-11.3 24.7-8.75 23.85-6.2 23.2-4.3L23.2-4.3Q23.05-3.7 22.8-3.7L22.8-3.7Q22.7-3.75 22.73-4 22.75-4.25 22.75-4.5L22.75-4.5Q22.85-6.65 23.18-8.78 23.5-10.9 24.05-13.15L24.05-13.15Q22.8-12.3 21.2-11.9 19.6-11.5 18.45-11.6ZM8.45-5.15L8.45-5.15Q8.55-7.55 8.9-9.85L8.9-9.85Q8.05-9.95 7.23-10.08 6.4-10.2 5.6-10.35L5.6-10.35Q5.4-7.65 5.75-5.03 6.1-2.4 7.25-0.2L7.25-0.2Q7.35 0 7.35 0L7.35 0Q7.35 0.25 7.05 0L7.05 0Q5.05-2.2 4.48-4.93 3.9-7.65 4.1-10.55L4.1-10.55 3-10.75Q2.75-10.75 2.58-10.85 2.4-10.95 2.4-11.05L2.4-11.05Q2.4-11.15 2.6-11.2 2.8-11.25 2.95-11.3L2.95-11.3Q5.8-11.9 8.65-11.75 11.5-11.6 14.45-11.25L14.45-11.25Q16.3-11.05 18.2-10.9 20.1-10.75 22.2-11.25L22.2-11.25Q22.4-11.3 22.45-11.2L22.45-11.2Q22.45-11.15 22.25-10.95L22.25-10.95Q21.4-10.15 19.95-9.85L19.95-9.85Q19.7-7.15 20-4.53 20.3-1.9 21.5 0L21.5 0Q21.65 0.15 21.5 0.15L21.5 0.15Q21.45 0.15 21.4 0.1 21.35 0.05 21.25 0L21.25 0Q20.3-0.8 19.73-1.88 19.15-2.95 18.85-4.2 18.55-5.45 18.48-6.83 18.4-8.2 18.45-9.6L18.45-9.6Q17.4-9.5 16.3-9.5 15.2-9.5 14.15-9.55 13.1-9.6 12.15-9.68 11.2-9.75 10.5-9.8L10.5-9.8Q10.1-8.45 9.65-7.23 9.2-6 8.9-5L8.9-5Q8.8-4.75 8.7-4.53 8.6-4.3 8.5-4.4L8.5-4.4Q8.4-4.4 8.43-4.65 8.45-4.9 8.45-5.15ZM22.1-2.9L22.1-2.9Q22.35-1.95 22.55-1.2 22.75-0.45 23.1 0L23.1 0Q23.15 0.05 23.2 0.13 23.25 0.2 23.15 0.25L23.15 0.25Q22.95 0.25 22.6 0L22.6 0Q22.05-0.4 21.63-0.9 21.2-1.4 20.95-2.9L20.95-2.9Q20.85-3.5 20.85-4.35 20.85-5.2 20.9-5.98 20.95-6.75 21.08-7.3 21.2-7.85 21.35-7.8L21.35-7.8Q21.45-7.8 21.5-7.55 21.55-7.3 21.6-7 21.65-6.7 21.68-6.4 21.7-6.1 21.7-5.95L21.7-5.95Q21.8-5.1 21.88-4.35 21.95-3.6 22.1-2.9ZM7.8-3.55L7.8-3.55Q8.1-1.75 8.75-0.2L8.75-0.2Q8.85 0.15 8.8 0.15L8.8 0.15Q8.55 0.15 8.25-0.15L8.25-0.15Q7.6-0.9 7.28-1.5 6.95-2.1 6.7-3.55L6.7-3.55Q6.6-4.1 6.58-4.95 6.55-5.8 6.6-6.6 6.65-7.4 6.78-7.95 6.9-8.5 7.05-8.5L7.05-8.5Q7.1-8.5 7.18-8.25 7.25-8 7.3-7.68 7.35-7.35 7.4-7.03 7.45-6.7 7.45-6.6L7.45-6.6Q7.55-5.75 7.63-5 7.7-4.25 7.8-3.55ZM1.7-11.6L1.7-11.6Q1.05-11.25 0.8-11 0.55-10.75 0.2-10.35L0.2-10.35Q0-10.1 0-10.2 0-10.3 0-10.45L0-10.45Q0.2-11.2 0.5-11.65 0.8-12.1 1.5-12.65L1.5-12.65Q1.85-12.95 2.48-13.15 3.1-13.35 3.7-13.43 4.3-13.5 4.75-13.48 5.2-13.45 5.2-13.3L5.2-13.3Q5.2-13.15 4.63-12.9 4.05-12.65 3.9-12.55L3.9-12.55Q3.3-12.3 2.75-12.08 2.2-11.85 1.7-11.6ZM43.85-20.4L43.85-20.4Q44.25-19.9 44.47-19.15 44.7-18.4 44.65-17.53 44.6-16.65 44.25-15.7 43.9-14.75 43.15-13.85L43.15-13.85Q41.7-12.15 39.97-11.23 38.25-10.3 36.85-10.3L36.85-10.3Q36-10.3 36.85-10.6L36.85-10.6Q37.3-10.75 37.92-11.08 38.55-11.4 39.25-11.88 39.95-12.35 40.67-13 41.4-13.65 42-14.5L42-14.5Q43-15.9 43.17-17.23 43.35-18.55 42.65-19.25L42.65-19.25Q42.05-19.85 41.25-19.93 40.45-20 38.85-19.05L38.85-19.05Q37.4-18.2 36.25-16.95 35.1-15.7 34.1-14.3L34.1-14.3Q33.55-13.6 33.37-13.6 33.2-13.6 33.5-14.5L33.5-14.5Q34.1-16.25 35.17-17.75 36.25-19.25 37.75-20.3L37.75-20.3Q38.85-21.05 39.77-21.35 40.7-21.65 41.47-21.6 42.25-21.55 42.85-21.23 43.45-20.9 43.85-20.4ZM46.55-16.9L46.55-16.9Q46.35-15.7 45.92-14.88 45.5-14.05 44.97-13.48 44.45-12.9 43.92-12.55 43.4-12.2 43-11.9L43-11.9Q42.8-11.75 42.7-11.85 42.6-11.95 42.85-12.2L42.85-12.2Q43.75-12.95 44.67-14.23 45.6-15.5 45.65-17.05L45.65-17.05Q45.65-19.7 44.35-21.1L44.35-21.1Q43.05-22.5 41.1-22.33 39.15-22.15 37.05-20.8L37.05-20.8Q35.7-19.95 34.67-18.82 33.65-17.7 32.9-16.43 32.15-15.15 31.67-13.8 31.2-12.45 31-11.1L31-11.1Q30.8-9.8 30.62-8.3 30.45-6.8 30.62-5.35 30.8-3.9 31.55-2.58 32.3-1.25 33.9-0.3L33.9-0.3Q34.15-0.15 34.42-0.1 34.7-0.05 34.7 0L34.7 0Q34.7 0.1 34.45 0.13 34.2 0.15 33.9 0.05L33.9 0.05Q32.65-0.2 31.77-0.98 30.9-1.75 30.35-2.75 29.8-3.75 29.5-4.85 29.2-5.95 29.15-6.85L29.15-6.85Q28.85-10.8 30.25-14.65L30.25-14.65Q30.55-15.45 31.02-16.45 31.5-17.45 32.2-18.48 32.9-19.5 33.85-20.48 34.8-21.45 36-22.2L36-22.2Q37.15-22.9 38.4-23.25 39.65-23.6 40.9-23.58 42.15-23.55 43.25-23.13 44.35-22.7 45.2-21.85L45.2-21.85Q45.95-21.05 46.37-19.8 46.8-18.55 46.55-16.9ZM42-18.7L42-18.7Q42.6-18 42.15-16.53 41.7-15.05 40.05-13.55L40.05-13.55Q39.15-12.7 38.3-12.18 37.45-11.65 36.15-11.25L36.15-11.25Q35.6-9.35 35.45-7.5 35.3-5.65 35.55-4.5L35.55-4.5Q35.6-4.05 35.87-3.63 36.15-3.2 36.67-2.98 37.2-2.75 38.05-2.8 38.9-2.85 40.15-3.35L40.15-3.35Q40.5-3.5 40.57-3.43 40.65-3.35 40.25-3.1L40.25-3.1Q39.35-2.4 38.35-2.13 37.35-1.85 36.47-1.95 35.6-2.05 34.97-2.55 34.35-3.05 34.15-3.9L34.15-3.9Q33.75-5.65 33.8-7.55 33.85-9.45 34.37-11.3 34.9-13.15 35.87-14.78 36.85-16.4 38.3-17.55L38.3-17.55Q41-19.7 42-18.7ZM41.5-2.75L41.5-2.75Q41.15-2.25 40.62-1.78 40.1-1.3 39.42-0.93 38.75-0.55 38.02-0.3 37.3-0.05 36.55-0.05L36.55-0.05Q35.25-0.05 34.12-0.63 33-1.2 32.4-2.95L32.4-2.95Q32.3-3.15 32.3-3.33 32.3-3.5 32.4-3.5L32.4-3.5Q32.6-3.6 32.8-3.38 33-3.15 33.2-2.9L33.2-2.9Q33.75-2.25 34.62-1.75 35.5-1.25 36.3-1.25L36.3-1.25Q37.8-1.25 38.9-1.7 40-2.15 41-2.9L41-2.9Q41.25-3.05 41.57-3.2 41.9-3.35 41.5-2.75ZM40.8-17.35L40.8-17.35Q40.6-17.75 39.35-16.7L39.35-16.7Q38.2-15.8 37.52-14.63 36.85-13.45 36.35-12.05L36.35-12.05Q37.3-12.5 38.1-13.08 38.9-13.65 39.6-14.2L39.6-14.2Q40.35-14.85 40.7-15.9 41.05-16.95 40.8-17.35ZM64.05-17.35L64.05-17.35Q64.05-14.85 63.37-12.13 62.7-9.4 61.6-6.75 60.5-4.1 59.07-1.73 57.65 0.65 56.15 2.35L56.15 2.35Q55.6 2.95 55.5 2.9 55.4 2.85 55.6 2.15L55.6 2.15Q55.9 1.35 56.37 0.35 56.85-0.65 57.32-1.63 57.8-2.6 58.27-3.5 58.75-4.4 59.05-5L59.05-5Q59.4-5.75 59.85-6.98 60.3-8.2 60.72-9.7 61.15-11.2 61.55-12.85 61.95-14.5 62.25-16.03 62.55-17.55 62.72-18.82 62.9-20.1 62.85-20.9L62.85-20.9Q62.8-21.8 62.87-22.08 62.95-22.35 63.05-22.28 63.15-22.2 63.27-21.95 63.4-21.7 63.5-21.5L63.5-21.5Q63.85-20.5 63.95-19.25 64.05-18 64.05-17.35ZM54.2-3.55L54.2-3.55Q53.85-3.15 53.25-2.8 52.65-2.45 52.1-2.45L52.1-2.45Q50.9-2.45 50.12-3.15 49.35-3.85 48.9-4.88 48.45-5.9 48.27-7.05 48.1-8.2 48.1-9.1L48.1-9.1Q48.1-10.45 48.37-12.23 48.65-14 49.22-15.78 49.8-17.55 50.62-19.13 51.45-20.7 52.6-21.65L52.6-21.65Q52.9-21.85 53.15-22.03 53.4-22.2 53-21.5L53-21.5Q52.7-20.95 52.42-20.55 52.15-20.15 52-19.65L52-19.65Q51.2-18.2 50.72-16.6 50.25-15 49.95-13.35L49.95-13.35Q49.5-11.15 49.5-8.95L49.5-8.95Q49.5-8.15 49.57-7.2 49.65-6.25 49.95-5.4 50.25-4.55 50.87-3.98 51.5-3.4 52.6-3.4L52.6-3.4Q52.9-3.4 53.3-3.55 53.7-3.7 53.95-3.85L53.95-3.85Q54.35-4 54.35-3.9 54.35-3.8 54.2-3.55ZM65.34-16.5L65.34-16.5Q65.55-15.75 65.55-14.75L65.55-14.75Q65.55-12.7 64.95-10.23 64.34-7.75 63.37-5.1 62.4-2.45 61.07 0.25 59.75 2.95 58.32 5.45 56.9 7.95 55.4 10.13 53.9 12.3 52.55 13.9L52.55 13.9Q52.5 13.95 52.37 14.1 52.25 14.25 52.12 14.38 52 14.5 51.9 14.55 51.8 14.6 51.8 14.4L51.8 14.4Q51.8 14.3 52.42 13.08 53.05 11.85 54 10.03 54.95 8.2 56.07 6.08 57.2 3.95 58.25 2 59.3 0.05 60.07-1.45 60.85-2.95 61.1-3.5L61.1-3.5Q62.55-6.7 63.57-9.93 64.59-13.15 65-16.6L65-16.6Q65.05-17 65.07-17.03 65.09-17.05 65.34-16.5ZM62.1-20.2L62.1-20.2Q62.1-17.4 61.32-14.53 60.55-11.65 59.4-8.85 58.25-6.05 56.87-3.43 55.5-0.8 54.25 1.45L54.25 1.45Q52 5.65 50.45 9.98 48.9 14.3 48.3 19L48.3 19Q48.2 19.55 48.15 19.45L48.15 19.45Q48.1 19.45 48.02 19.18 47.95 18.9 47.9 18.57 47.85 18.25 47.82 17.9 47.8 17.55 47.8 17.3L47.8 17.3Q47.8 15.05 48.3 12.75 48.8 10.45 49.6 8.25 50.4 6.05 51.37 3.95 52.35 1.85 53.35 0L53.35 0 52 0Q50.5 0 49.4-0.7 48.3-1.4 47.6-2.55 46.9-3.7 46.52-5.25 46.15-6.8 46.15-8.5L46.15-8.5Q46.15-9.15 46.3-10.33 46.45-11.5 46.75-12.78 47.05-14.05 47.5-15.28 47.95-16.5 48.5-17.25L48.5-17.25Q48.9-17.8 48.95-17.7 49-17.6 48.85-17.05L48.85-17.05Q48.2-15.15 47.82-13.1 47.45-11.05 47.45-9.05L47.45-9.05Q47.45-7.9 47.6-6.55 47.75-5.2 48.22-4.08 48.7-2.95 49.6-2.2 50.5-1.45 52.05-1.45L52.05-1.45Q53.15-1.45 54.05-2.2 54.95-2.95 55.67-4.05 56.4-5.15 56.97-6.45 57.55-7.75 58-8.85L58-8.85Q57.5-8.15 56.82-7.48 56.15-6.8 55.4-6.25 54.65-5.7 53.9-5.35 53.15-5 52.45-5L52.45-5Q51.75-5 51.35-5.45 50.95-5.9 50.72-6.58 50.5-7.25 50.45-7.95 50.4-8.65 50.4-9.2L50.4-9.2Q50.4-11 50.62-12.83 50.85-14.65 51.35-16.43 51.85-18.2 52.67-19.83 53.5-21.45 54.7-22.8L54.7-22.8Q54.8-22.95 54.95-23.08 55.1-23.2 55.22-23.25 55.35-23.3 55.35-23.23 55.35-23.15 55.15-22.8L55.15-22.8Q53.7-20.1 52.77-16.8 51.85-13.5 51.85-10.4L51.85-10.4Q51.85-10.1 51.87-9.43 51.9-8.75 52.02-8.05 52.15-7.35 52.42-6.83 52.7-6.3 53.15-6.3L53.15-6.3Q53.3-6.3 53.55-6.45L53.55-6.45Q55.65-7.5 57.1-9.35 58.55-11.2 59.5-13.48 60.45-15.75 60.87-18.18 61.3-20.6 61.35-22.8L61.35-22.8Q61.35-23.6 61.45-23.65 61.55-23.7 61.8-22.8L61.8-22.8Q62.1-21.35 62.1-20.2ZM52.55 9.4L52.55 9.4Q52.55 9.75 52.32 10.55 52.1 11.35 51.8 12.25 51.5 13.15 51.2 14 50.9 14.85 50.75 15.3L50.75 15.3Q50.35 16.4 50.15 17.48 49.95 18.55 49.7 19.7L49.7 19.7Q49.7 19.8 49.65 20 49.6 20.2 49.45 20.2L49.45 20.2Q49.35 20.2 49.3 19.95 49.25 19.7 49.25 19.6L49.25 19.6Q49.15 19.2 49.12 18.5 49.1 17.8 49.15 17.4L49.15 17.4Q49.3 16.15 49.7 14.73 50.1 13.3 50.57 12.08 51.05 10.85 51.55 10.05 52.05 9.25 52.4 9.25L52.4 9.25Q52.55 9.25 52.55 9.4ZM75.84-11.45L75.84-11.45Q75.69-11.1 75.67-11.33 75.64-11.55 75.69-11.65L75.69-11.65Q76.04-13.6 77.09-14.8L77.09-14.8Q77.29-16.5 77.82-18.43 78.34-20.35 78.94-22.3 79.54-24.25 80.12-26.13 80.69-28 81.09-29.6L81.09-29.6Q79.94-29.6 78.89-29.75L78.89-29.75Q78.49-29.85 78.49-29.85L78.49-29.85Q78.44-30 78.84-30.2L78.84-30.2Q80.79-31.2 83.04-31.28 85.29-31.35 87.54-31.15L87.54-31.15Q88.99-31.05 90.44-31 91.89-30.95 93.49-31.45L93.49-31.45Q93.74-31.5 93.74-31.35L93.74-31.35Q93.74-31.25 93.59-31.1L93.59-31.1Q93.04-30.45 92.17-30.13 91.29-29.8 90.24-29.65 89.19-29.5 88.12-29.5 87.04-29.5 86.09-29.5L86.09-29.5Q86.34-28.3 86.29-26.73 86.24-25.15 86.02-23.45 85.79-21.75 85.42-20.05 85.04-18.35 84.69-16.9L84.69-16.9Q86.59-16.65 88.32-16.53 90.04-16.4 91.44-17.2L91.44-17.2Q91.59-17.25 91.59-17.15L91.59-17.15Q91.59-17 91.54-16.9L91.54-16.9Q90.64-15.7 89.49-15.33 88.34-14.95 87.09-15.03 85.84-15.1 84.49-15.35 83.14-15.6 81.89-15.6L81.89-15.6Q80.29-15.6 78.62-14.68 76.94-13.75 75.84-11.45ZM80.69-5.15L80.69-5.15Q80.74-6.4 80.84-7.75 80.94-9.1 81.19-10.4L81.19-10.4Q80.99-10.45 80.27-10.58 79.54-10.7 78.84-10.75L78.84-10.75Q78.19-10.8 78.02-10.58 77.84-10.35 77.79-9.75L77.79-9.75Q77.54-7.2 77.99-4.7 78.44-2.2 79.49-0.2L79.49-0.2Q79.59-0.05 79.54 0.05 79.49 0.15 79.34 0L79.34 0Q77.69-2 77.09-4.03 76.49-6.05 76.39-8.35L76.39-8.35Q76.34-9.35 76.82-10.2 77.29-11.05 78.29-11.5L78.29-11.5Q79.94-12.2 81.59-12.1 83.24-12 85.04-11.8L85.04-11.8Q86.09-11.7 87.27-11.63 88.44-11.55 89.59-12.1L89.59-12.1Q89.74-12.2 89.79-12.15L89.79-12.15Q89.84-12.1 89.79-12 89.74-11.9 89.69-11.8L89.69-11.8Q89.24-11 88.37-10.65 87.49-10.3 86.49-10.2 85.49-10.1 84.52-10.15 83.54-10.2 82.89-10.2L82.89-10.2Q82.44-8.7 81.94-7.4 81.44-6.1 81.09-5L81.09-5Q80.89-4.35 80.79-4.4L80.79-4.4Q80.69-4.45 80.69-4.67 80.69-4.9 80.69-5.15ZM76.04-29.65L76.04-29.65Q75.94-29.3 75.87-29.48 75.79-29.65 75.84-29.8L75.84-29.8Q76.09-31.6 76.89-32.85 77.69-34.1 78.79-34.88 79.89-35.65 81.19-36.02 82.49-36.4 83.79-36.45L83.79-36.45Q85.54-36.5 87.24-36.33 88.94-36.15 90.57-36 92.19-35.85 93.67-35.88 95.14-35.9 96.44-36.35L96.44-36.35Q96.59-36.4 96.59-36.3L96.59-36.3 96.44-36.1Q95.14-34.95 93.59-34.65 92.04-34.35 90.37-34.43 88.69-34.5 86.94-34.73 85.19-34.95 83.49-34.85L83.49-34.85Q82.39-34.8 81.24-34.45 80.09-34.1 79.09-33.48 78.09-32.85 77.29-31.9 76.49-30.95 76.04-29.65ZM90.59-31.65L90.59-31.65Q88.99-31.75 87.17-32.05 85.34-32.35 83.74-32.75L83.74-32.75Q83.64-32.75 83.37-32.85 83.09-32.95 83.09-33.1L83.09-33.1Q83.09-33.2 83.32-33.27 83.54-33.35 83.64-33.35L83.64-33.35Q83.99-33.45 84.52-33.52 85.04-33.6 85.62-33.65 86.19-33.7 86.74-33.7 87.29-33.7 87.69-33.7L87.69-33.7Q88.44-33.65 89.62-33.65 90.79-33.65 91.99-33.77 93.19-33.9 94.22-34.13 95.24-34.35 95.79-34.75L95.79-34.75Q96.04-35 96.04-34.8L96.04-34.8Q96.04-34.7 95.97-34.6 95.89-34.5 95.84-34.4L95.84-34.4Q95.44-33.7 94.79-33.18 94.14-32.65 93.39-32.27 92.64-31.9 91.92-31.75 91.19-31.6 90.59-31.65ZM87.34-12.25L87.34-12.25Q86.04-12.35 84.67-12.7 83.29-13.05 81.99-13.5L81.99-13.5Q81.94-13.5 81.77-13.6 81.59-13.7 81.59-13.85L81.59-13.85Q81.59-13.95 81.84-14.05 82.09-14.15 82.34-14.2L82.34-14.2Q82.74-14.3 83.49-14.38 84.24-14.45 84.89-14.35L84.89-14.35Q85.69-14.25 86.64-14.23 87.59-14.2 88.44-14.33 89.29-14.45 89.99-14.75 90.69-15.05 91.04-15.5L91.04-15.5Q91.09-15.65 91.24-15.65L91.24-15.65 91.29-15.65Q91.34-15.55 91.32-15.4 91.29-15.25 91.24-15.15L91.24-15.15Q90.69-13.7 89.49-12.95 88.29-12.2 87.34-12.25ZM81.54-21.25L81.54-21.25Q81.59-21.5 81.87-22.33 82.14-23.15 82.49-24.3 82.84-25.45 83.17-26.8 83.49-28.15 83.64-29.5L83.64-29.5 82.49-29.5Q82.09-26.35 80.97-23.08 79.84-19.8 78.94-16.45L78.94-16.45Q79.34-16.65 79.72-16.8 80.09-16.95 80.49-17.05L80.49-17.05Q80.74-18.15 81.02-19.28 81.29-20.4 81.54-21.25ZM84.19-24.85L84.19-24.85Q83.64-22.75 83.17-20.98 82.69-19.2 81.94-17.2L81.94-17.2 82.09-17.2Q82.24-17.2 82.42-17.2 82.59-17.2 82.84-17.1L82.84-17.1Q83.04-17.9 83.29-18.63 83.54-19.35 83.79-20.2L83.79-20.2Q84.39-22.3 84.89-24.43 85.39-26.55 85.59-29.5L85.59-29.5 84.59-29.5Q84.59-28.35 84.52-27.03 84.44-25.7 84.19-24.85ZM80.09-3.55L80.09-3.55Q80.24-2.7 80.49-1.88 80.74-1.05 81.04-0.2L81.04-0.2Q81.09-0.1 81.12 0.08 81.14 0.25 81.04 0.25L81.04 0.25Q80.94 0.25 80.79 0.15 80.64 0.05 80.54-0.05L80.54-0.05Q79.94-0.8 79.57-1.45 79.19-2.1 78.94-3.55L78.94-3.55Q78.84-4.1 78.82-4.95 78.79-5.8 78.84-6.6 78.89-7.4 79.02-7.95 79.14-8.5 79.34-8.5L79.34-8.5Q79.39-8.5 79.47-8.25 79.54-8 79.59-7.68 79.64-7.35 79.67-7.03 79.69-6.7 79.69-6.6L79.69-6.6Q79.79-5.75 79.87-5 79.94-4.25 80.09-3.55ZM77.89-30.3L77.89-30.3Q77.49-29.8 77.17-29.33 76.84-28.85 76.59-28.3L76.59-28.3Q76.54-28.2 76.44-28.23 76.34-28.25 76.39-28.65L76.39-28.65Q76.49-29.5 76.64-30.05 76.79-30.6 77.49-31.3L77.49-31.3Q77.74-31.6 78.19-31.88 78.64-32.15 79.04-32.35 79.44-32.55 79.77-32.6 80.09-32.65 80.14-32.45L80.14-32.45Q80.19-32.3 79.82-31.95 79.44-31.6 79.24-31.5L79.24-31.5Q78.44-30.9 77.89-30.3ZM76.09-9.95L76.09-9.95Q75.99-9.75 75.89-9.85L75.89-9.85Q75.84-9.9 75.89-10.35L75.89-10.35Q76.09-11.05 76.34-11.63 76.59-12.2 77.14-12.75L77.14-12.75Q77.34-12.95 77.77-13.15 78.19-13.35 78.57-13.48 78.94-13.6 79.19-13.63 79.44-13.65 79.34-13.5L79.34-13.5Q79.04-13.1 78.57-12.65 78.09-12.2 77.62-11.7 77.14-11.2 76.72-10.75 76.29-10.3 76.09-9.95ZM110.04-13.85L110.04-13.85Q110.19-15.2 110.09-16.7 109.99-18.2 109.46-19.48 108.94-20.75 107.86-21.6 106.79-22.45 105.04-22.45L105.04-22.45Q102.69-22.45 100.94-21.18 99.19-19.9 97.94-18.03 96.69-16.15 95.99-14.03 95.29-11.9 95.09-10.15L95.09-10.15Q94.79-7.75 95.01-6 95.24-4.25 95.84-3.13 96.44-2 97.36-1.45 98.29-0.9 99.39-0.9L99.39-0.9Q100.94-0.85 102.66-1.78 104.39-2.7 105.89-4.38 107.39-6.05 108.51-8.47 109.64-10.9 110.04-13.85ZM93.94-10.4L93.94-10.4Q94.14-12.4 94.94-14.8 95.74-17.2 97.16-19.25 98.59-21.3 100.59-22.68 102.59-24.05 105.24-24.05L105.24-24.05Q107.24-24.05 108.54-23.1 109.84-22.15 110.54-20.68 111.24-19.2 111.44-17.48 111.64-15.75 111.44-14.2L111.44-14.2Q110.99-10.6 109.69-7.95 108.39-5.3 106.64-3.53 104.89-1.75 102.94-0.88 100.99 0 99.19 0L99.19 0Q97.84 0 96.76-0.6 95.69-1.2 94.96-2.48 94.24-3.75 93.96-5.73 93.69-7.7 93.94-10.4ZM99.54-3.35L99.54-3.35Q99.29-3.35 99.04-3.53 98.79-3.7 98.64-3.95 98.49-4.2 98.44-4.45 98.39-4.7 98.64-4.8L98.64-4.8Q98.79-4.85 99.04-4.45 99.29-4.05 99.59-4.05L99.59-4.05Q100.09-4.05 100.76-4.7 101.44-5.35 102.06-6.23 102.69-7.1 103.16-7.95 103.64-8.8 103.84-9.2L103.84-9.2Q104.04-9.6 104.24-10.23 104.44-10.85 104.61-11.5 104.79-12.15 104.91-12.78 105.04-13.4 105.09-13.85L105.09-13.85Q105.34-16.1 104.99-17.32 104.64-18.55 103.84-18.55L103.84-18.55Q103.24-18.55 102.59-18.18 101.94-17.8 101.36-17.2 100.79-16.6 100.34-15.88 99.89-15.15 99.69-14.4L99.69-14.4Q99.44-13.55 99.34-13.55L99.34-13.55Q99.19-13.55 99.19-14.4L99.19-14.4Q99.34-15.35 99.84-16.28 100.34-17.2 101.09-17.93 101.84-18.65 102.74-19.13 103.64-19.6 104.59-19.6L104.59-19.6Q105.54-19.6 106.01-18.93 106.49-18.25 106.69-17.28 106.89-16.3 106.86-15.28 106.84-14.25 106.74-13.65L106.74-13.65Q106.54-12.3 106.11-11.03 105.69-9.75 105.09-8.45L105.09-8.45Q104.79-7.85 104.19-6.98 103.59-6.1 102.81-5.3 102.04-4.5 101.16-3.93 100.29-3.35 99.54-3.35ZM101.14-2.4L101.14-2.4Q101.19-2.1 100.66-1.9 100.14-1.7 99.59-1.7L99.59-1.7Q98.04-1.75 97.21-2.7 96.39-3.65 96.06-4.95 95.74-6.25 95.76-7.65 95.79-9.05 95.89-10L95.89-10Q96.09-11.65 96.69-13.7 97.29-15.75 98.39-17.55 99.49-19.35 101.09-20.58 102.69-21.8 104.89-21.8L104.89-21.8Q106.34-21.8 107.21-21.05 108.09-20.3 108.51-19.2 108.94-18.1 109.01-16.82 109.09-15.55 108.94-14.5L108.94-14.5Q108.84-13.35 108.59-12.4 108.34-11.45 107.89-10.3L107.89-10.3Q107.74-9.95 107.49-9.5 107.24-9.05 106.94-9.1L106.94-9.1Q106.79-9.15 106.86-9.5 106.94-9.85 107.06-10.38 107.19-10.9 107.34-11.48 107.49-12.05 107.54-12.55L107.54-12.55Q107.64-13.4 107.66-14.68 107.69-15.95 107.46-17.15 107.24-18.35 106.64-19.2 106.04-20.05 104.84-20.05L104.84-20.05Q103.09-20.05 101.61-18.93 100.14-17.8 99.04-16.18 97.94-14.55 97.26-12.78 96.59-11 96.44-9.65L96.44-9.65Q96.34-8.85 96.39-7.65 96.44-6.45 96.76-5.28 97.09-4.1 97.84-3.25 98.59-2.4 99.89-2.35L99.89-2.35Q100.29-2.3 100.66-2.43 101.04-2.55 101.14-2.4ZM128.39-13.85L128.39-13.85Q128.53-15.2 128.44-16.7 128.34-18.2 127.81-19.48 127.29-20.75 126.21-21.6 125.14-22.45 123.39-22.45L123.39-22.45Q121.04-22.45 119.29-21.18 117.54-19.9 116.29-18.03 115.04-16.15 114.34-14.03 113.64-11.9 113.44-10.15L113.44-10.15Q113.14-7.75 113.36-6 113.59-4.25 114.19-3.13 114.79-2 115.71-1.45 116.64-0.9 117.74-0.9L117.74-0.9Q119.29-0.85 121.01-1.78 122.74-2.7 124.24-4.38 125.74-6.05 126.86-8.47 127.99-10.9 128.39-13.85ZM112.29-10.4L112.29-10.4Q112.49-12.4 113.29-14.8 114.09-17.2 115.51-19.25 116.94-21.3 118.94-22.68 120.94-24.05 123.59-24.05L123.59-24.05Q125.59-24.05 126.89-23.1 128.19-22.15 128.89-20.68 129.59-19.2 129.78-17.48 129.99-15.75 129.78-14.2L129.78-14.2Q129.34-10.6 128.03-7.95 126.74-5.3 124.99-3.53 123.24-1.75 121.29-0.88 119.34 0 117.54 0L117.54 0Q116.19 0 115.11-0.6 114.04-1.2 113.31-2.48 112.59-3.75 112.31-5.73 112.04-7.7 112.29-10.4ZM117.89-3.35L117.89-3.35Q117.64-3.35 117.39-3.53 117.14-3.7 116.99-3.95 116.84-4.2 116.79-4.45 116.74-4.7 116.99-4.8L116.99-4.8Q117.14-4.85 117.39-4.45 117.64-4.05 117.94-4.05L117.94-4.05Q118.44-4.05 119.11-4.7 119.79-5.35 120.41-6.23 121.04-7.1 121.51-7.95 121.99-8.8 122.19-9.2L122.19-9.2Q122.39-9.6 122.59-10.23 122.79-10.85 122.96-11.5 123.14-12.15 123.26-12.78 123.39-13.4 123.44-13.85L123.44-13.85Q123.69-16.1 123.34-17.32 122.99-18.55 122.19-18.55L122.19-18.55Q121.59-18.55 120.94-18.18 120.29-17.8 119.71-17.2 119.14-16.6 118.69-15.88 118.24-15.15 118.04-14.4L118.04-14.4Q117.79-13.55 117.69-13.55L117.69-13.55Q117.54-13.55 117.54-14.4L117.54-14.4Q117.69-15.35 118.19-16.28 118.69-17.2 119.44-17.93 120.19-18.65 121.09-19.13 121.99-19.6 122.94-19.6L122.94-19.6Q123.89-19.6 124.36-18.93 124.84-18.25 125.04-17.28 125.24-16.3 125.21-15.28 125.19-14.25 125.09-13.65L125.09-13.65Q124.89-12.3 124.46-11.03 124.04-9.75 123.44-8.45L123.44-8.45Q123.14-7.85 122.54-6.98 121.94-6.1 121.16-5.3 120.39-4.5 119.51-3.93 118.64-3.35 117.89-3.35ZM119.49-2.4L119.49-2.4Q119.54-2.1 119.01-1.9 118.49-1.7 117.94-1.7L117.94-1.7Q116.39-1.75 115.56-2.7 114.74-3.65 114.41-4.95 114.09-6.25 114.11-7.65 114.14-9.05 114.24-10L114.24-10Q114.44-11.65 115.04-13.7 115.64-15.75 116.74-17.55 117.84-19.35 119.44-20.58 121.04-21.8 123.24-21.8L123.24-21.8Q124.69-21.8 125.56-21.05 126.44-20.3 126.86-19.2 127.29-18.1 127.36-16.82 127.44-15.55 127.29-14.5L127.29-14.5Q127.19-13.35 126.94-12.4 126.69-11.45 126.24-10.3L126.24-10.3Q126.09-9.95 125.84-9.5 125.59-9.05 125.29-9.1L125.29-9.1Q125.14-9.15 125.21-9.5 125.29-9.85 125.41-10.38 125.54-10.9 125.69-11.48 125.84-12.05 125.89-12.55L125.89-12.55Q125.99-13.4 126.01-14.68 126.04-15.95 125.81-17.15 125.59-18.35 124.99-19.2 124.39-20.05 123.19-20.05L123.19-20.05Q121.44-20.05 119.96-18.93 118.49-17.8 117.39-16.18 116.29-14.55 115.61-12.78 114.94-11 114.79-9.65L114.79-9.65Q114.69-8.85 114.74-7.65 114.79-6.45 115.11-5.28 115.44-4.1 116.19-3.25 116.94-2.4 118.24-2.35L118.24-2.35Q118.64-2.3 119.01-2.43 119.39-2.55 119.49-2.4ZM152.33-26.05L152.33-26.05Q151.63-22.9 150.51-19.78 149.38-16.65 148.28-13.85L148.28-13.85Q148.23-13.6 148.03-13.2 147.83-12.8 147.58-12.9L147.58-12.9Q147.53-12.9 147.53-13.35 147.53-13.8 147.58-13.95L147.58-13.95Q147.68-14.65 147.86-15.63 148.03-16.6 148.26-17.6 148.48-18.6 148.73-19.58 148.98-20.55 149.18-21.25L149.18-21.25Q149.33-21.55 149.56-22.6 149.78-23.65 150.03-25.08 150.28-26.5 150.48-28.15 150.68-29.8 150.73-31.33 150.78-32.85 150.71-34.1 150.63-35.35 150.28-35.95L150.28-35.95Q150.03-36.45 150.18-36.5L150.18-36.5Q150.38-36.5 150.63-36.25L150.63-36.25Q151.38-35.5 151.81-34.23 152.23-32.95 152.43-31.48 152.63-30 152.58-28.55 152.53-27.1 152.33-26.05ZM153.63-31.6L153.63-31.6Q154.13-30.6 154.23-29.15 154.33-27.7 154.18-26.03 154.03-24.35 153.71-22.58 153.38-20.8 152.98-19.18 152.58-17.55 152.21-16.15 151.83-14.75 151.58-13.85L151.58-13.85Q150.88-11.25 150.31-8.68 149.73-6.1 149.73-4.3L149.73-4.3Q149.73-3.65 149.68-3.65L149.68-3.65Q149.58-3.55 149.46-3.8 149.33-4.05 149.23-4.3L149.23-4.3Q148.73-6.1 148.81-8.03 148.88-9.95 149.28-11.98 149.68-14 150.31-16.07 150.93-18.15 151.53-20.2L151.53-20.2Q152.23-22.8 152.93-25.63 153.63-28.45 153.38-31.6L153.38-31.6Q153.38-31.85 153.36-31.88 153.33-31.9 153.38-31.9L153.38-31.9Q153.48-31.9 153.63-31.6ZM146.43-21.35L146.43-21.35Q143.43-20.05 141.31-17.73 139.18-15.4 138.08-12.55L138.08-12.55Q137.63-11.35 137.36-10.28 137.08-9.2 136.98-8L136.98-8Q136.93-7.4 137.28-7.55 137.63-7.7 137.88-8L137.88-8Q138.48-8.75 138.98-9.47 139.48-10.2 140.01-10.98 140.53-11.75 141.11-12.63 141.68-13.5 142.38-14.5L142.38-14.5Q143.13-15.55 143.81-16.57 144.48-17.6 145.01-18.5 145.53-19.4 145.91-20.15 146.28-20.9 146.43-21.35ZM145.33-17.4L145.33-17.4Q143.53-13.9 141.63-10.83 139.73-7.75 137.28-5.2L137.28-5.2Q135.73-3.55 135.43-5.7L135.43-5.7Q135.33-7.4 135.68-9.25 136.03-11.1 136.73-12.75L136.73-12.75Q137.38-14.35 138.33-15.85 139.28-17.35 140.53-18.6 141.78-19.85 143.31-20.7 144.83-21.55 146.58-21.85L146.58-21.85Q147.18-23.95 147.73-25.98 148.28-28 148.63-29.95 148.98-31.9 149.01-33.73 149.03-35.55 148.68-37.2L148.68-37.2Q148.58-37.5 148.63-37.5L148.63-37.5Q148.73-37.55 148.81-37.4 148.88-37.25 148.88-37.2L148.88-37.2Q150.08-34.8 150.06-32.05 150.03-29.3 149.38-26.35 148.73-23.4 147.76-20.35 146.78-17.3 146.08-14.25L146.08-14.25Q145.63-12.3 145.56-10.08 145.48-7.85 145.98-5.7L145.98-5.7Q146.48-3.45 147.83-1.88 149.18-0.3 150.93-0.15L150.93-0.15Q151.33-0.1 151.33 0L151.33 0Q151.33 0.1 151.21 0.13 151.08 0.15 150.98 0.15L150.98 0.15Q149.93 0.15 148.91-0.25 147.88-0.65 146.98-1.4 146.08-2.15 145.41-3.18 144.73-4.2 144.43-5.5L144.43-5.5Q144.33-5.9 144.33-6.15L144.33-6.15Q142.93-3.5 140.96-1.88 138.98-0.25 135.98 0L135.98 0Q133.73 0.15 132.56-1.05 131.38-2.25 130.93-3.95 130.48-5.65 130.63-7.53 130.78-9.4 131.18-10.6L131.18-10.6Q132.33-14.05 134.08-16.68 135.83-19.3 137.58-20.35L137.58-20.35Q137.68-20.45 137.88-20.53 138.08-20.6 138.13-20.55L138.13-20.55Q138.23-20.5 138.08-20.35 137.93-20.2 137.88-20.15L137.88-20.15Q135.18-17.45 133.71-13.98 132.23-10.5 132.13-6.9L132.13-6.9Q132.08-6 132.18-4.95 132.28-3.9 132.66-2.98 133.03-2.05 133.73-1.43 134.43-0.8 135.63-0.8L135.63-0.8Q137.33-0.75 138.86-1.83 140.38-2.9 141.51-4.48 142.63-6.05 143.33-7.85 144.03-9.65 144.13-11.15L144.13-11.15Q143.78-10.75 143.53-10.33 143.28-9.9 142.88-9.4L142.88-9.4Q142.83-9.3 142.58-9.08 142.33-8.85 142.18-8.9L142.18-8.9Q142.08-8.95 142.28-9.47 142.48-10 142.78-10.63 143.08-11.25 143.38-11.83 143.68-12.4 143.78-12.6L143.78-12.6Q144.33-13.75 144.63-14.9 144.93-16.05 145.33-17.4ZM152.28-1.15L152.28-1.15Q152.28-1.05 152.03-0.95L152.03-0.95Q151.88-0.9 151.78-0.9L151.78-0.9Q150.83-0.8 150.01-1 149.18-1.2 148.33-2.05L148.33-2.05Q147.88-2.5 147.56-3.4 147.23-4.3 147.06-5.15 146.88-6 146.91-6.65 146.93-7.3 147.13-7.25L147.13-7.25Q147.18-7.3 147.31-7.05 147.43-6.8 147.53-6.48 147.63-6.15 147.73-5.83 147.83-5.5 147.88-5.35L147.88-5.35Q148.13-4.55 148.48-3.9 148.83-3.25 149.33-2.75L149.33-2.75Q150.53-1.35 151.93-1.3L151.93-1.3Q152.03-1.3 152.16-1.28 152.28-1.25 152.28-1.15ZM145.03-22.25L145.03-22.25Q145.03-22.2 144.96-22.15 144.88-22.1 144.58-22L144.58-22Q143.93-21.75 142.98-21.18 142.03-20.6 140.98-19.75 139.93-18.9 138.91-17.78 137.88-16.65 137.13-15.35L137.13-15.35Q136.38-14 135.86-12.73 135.33-11.45 135.03-10.38 134.73-9.3 134.61-8.55 134.48-7.8 134.43-7.55L134.43-7.55Q134.38-6.7 134.38-5.88 134.38-5.05 134.61-4.38 134.83-3.7 135.33-3.35 135.83-3 136.83-3.15L136.83-3.15Q136.93-3.15 137.46-3.38 137.98-3.6 138.08-3.55L138.08-3.55Q138.13-3.5 138.03-3.35 137.93-3.2 137.73-3.03 137.53-2.85 137.36-2.73 137.18-2.6 137.13-2.55L137.13-2.55Q136.68-2.3 136.13-2.18 135.58-2.05 135.06-2.15 134.53-2.25 134.08-2.58 133.63-2.9 133.43-3.5L133.43-3.5Q132.88-5.35 132.93-7.1L132.93-7.1Q133.03-8.85 133.38-10.58 133.73-12.3 134.58-14.05L134.58-14.05Q135.08-15.4 136.16-16.85 137.23-18.3 138.63-19.5 140.03-20.7 141.56-21.5 143.08-22.3 144.43-22.35L144.43-22.35Q144.63-22.35 144.83-22.35 145.03-22.35 145.03-22.25Z" opacity="1" transform="matrix(1,0,0,1,0,0)" fill="#000000" class="wordmark-text-0" data-fill-palette-color="quaternary" id="text-0"></path></svg></g></svg></g><g transform="matrix(1,0,0,1,0,98.50418752023943)"><svg viewBox="0 0 213.15844122715714 21.457008653329726" height="21.457008653329726" width="213.15844122715714"><g transform="matrix(1,0,0,1,0,0)"><svg width="213.15844122715714" viewBox="2.05 -37.5 377.46999999999997 38" height="21.457008653329726" data-palette-color="#000000"><path d="M25.05-15.45L25.05-15.45 25.05-19.15Q25.05-28.3 24.15-30.7L24.15-30.7Q23.15-33.45 21.3-34.1L21.3-34.1Q20.25-34.5 18.75-34.5 17.25-34.5 16.18-34.1 15.1-33.7 14.4-32.7 13.7-31.7 13.28-30.6 12.85-29.5 12.6-27.5L12.6-27.5Q12.3-24.6 12.3-18.95L12.3-18.95 12.3-15.35Q12.3-9.25 12.78-6.68 13.25-4.1 13.95-3L13.95-3Q15.5-0.55 18.75-0.55L18.75-0.55Q22.7-0.55 23.88-3.88 25.05-7.2 25.05-15.45ZM18.65 0.5Q10.3 0.5 6.18-4.03 2.05-8.55 2.05-17.13 2.05-25.7 6.48-30.63 10.9-35.55 19-35.55 27.1-35.55 31.23-30.88 35.35-26.2 35.35-17.6 35.35-9 31.18-4.25 27 0.5 18.65 0.5ZM54.6-22.4L54.6-22.4Q52.75-22.4 51.35-20 49.95-17.6 49.95-14.3L49.95-14.3 49.95-0.9 53.5-0.9 53.5 0 37.9 0 37.9-0.9 40.65-0.9 40.65-22.9 37.9-22.9 37.9-23.8 49.95-23.8 49.95-19Q50.6-21.55 52.45-22.93 54.3-24.3 56.65-24.3 59-24.3 60.47-22.98 61.95-21.65 61.95-19.23 61.95-16.8 60.85-15.5 59.75-14.2 57.47-14.2 55.2-14.2 54.12-15.7 53.05-17.2 53.85-19.85L53.85-19.85 55.65-19.85Q56.9-22.4 54.6-22.4ZM72.8-10.35Q72.8-5.1 73.34-3.38 73.9-1.65 75.37-1.65 76.84-1.65 77.92-2.95 79-4.25 79-6.8L79-6.8 79-17.7Q79-19.85 78.15-21.35 77.3-22.85 75.65-22.85 74-22.85 73.4-20.65 72.8-18.45 72.8-12.95L72.8-12.95 72.8-10.35ZM90.75 0L79.65 0 79.09-3.5Q77.4 0.5 72.2 0.5L72.2 0.5Q67.9 0.5 65.52-2.6 63.15-5.7 63.15-11.85L63.15-11.85Q63.15-24.3 73.05-24.3L73.05-24.3Q77.45-24.3 78.84-21.85L78.84-21.85 78.84-36.6 75.8-36.6 75.8-37.5 88.3-37.5 88.3-0.9 90.75-0.9 90.75 0ZM105.19 0.5Q98.74 0.5 95.52-2.83 92.29-6.15 92.29-12.08 92.29-18 95.92-21.15 99.54-24.3 105.14-24.3L105.14-24.3Q116.49-24.3 116.04-12.9L116.04-12.9 101.94-12.9 101.94-10.95Q101.94-6.05 103.19-3.55 104.44-1.05 107.54-1.05L107.54-1.05Q113.34-1.05 115.14-7.25L115.14-7.25 116.04-7.1Q115.09-3.5 112.62-1.5 110.14 0.5 105.19 0.5L105.19 0.5ZM101.99-16.35L101.99-13.9 107.14-13.9 107.14-16.35Q107.14-20.4 106.67-21.88 106.19-23.35 104.77-23.35 103.34-23.35 102.67-21.78 101.99-20.2 101.99-16.35L101.99-16.35ZM134.54-22.4L134.54-22.4Q132.69-22.4 131.29-20 129.89-17.6 129.89-14.3L129.89-14.3 129.89-0.9 133.44-0.9 133.44 0 117.84 0 117.84-0.9 120.59-0.9 120.59-22.9 117.84-22.9 117.84-23.8 129.89-23.8 129.89-19Q130.54-21.55 132.39-22.93 134.24-24.3 136.59-24.3 138.94-24.3 140.42-22.98 141.89-21.65 141.89-19.23 141.89-16.8 140.79-15.5 139.69-14.2 137.42-14.2 135.14-14.2 134.06-15.7 132.99-17.2 133.79-19.85L133.79-19.85 135.59-19.85Q136.84-22.4 134.54-22.4ZM164.14-34.2L170.94-18.55 178.04-34.2 172.99-34.2 172.99-35 182.84-35 182.84-34.2 179.54-34.2 171.99-17.5 171.99-0.95 175.04-0.95 175.04 0 159.19 0 159.19-0.95 162.24-0.95 162.24-16.55 153.74-34.2 151.39-34.2 151.39-35 167.39-35 167.39-34.2 164.14-34.2ZM195.03-9.85L195.03-9.85 195.03-14.1Q195.03-18.95 194.51-21.18 193.98-23.4 192.08-23.4L192.08-23.4Q190.98-23.4 190.31-22.78 189.63-22.15 189.33-20.7L189.33-20.7Q188.88-18.45 188.88-13.85L188.88-13.85 188.88-9.95Q188.88-4.5 189.21-3.4 189.53-2.3 189.88-1.6L189.88-1.6Q190.43-0.4 192.03-0.4L192.03-0.4Q193.98-0.4 194.58-2.65L194.58-2.65Q195.03-4.25 195.03-9.85ZM191.93 0.5Q185.68 0.5 182.48-2.7 179.28-5.9 179.28-11.88 179.28-17.85 182.71-21.08 186.13-24.3 192.33-24.3 198.53-24.3 201.58-21.33 204.63-18.35 204.63-12.25L204.63-12.25Q204.63 0.5 191.93 0.5L191.93 0.5ZM235.28-0.9L235.28 0 223.88 0 223.33-3.65Q222.53-1.65 220.96-0.58 219.38 0.5 216.28 0.5L216.28 0.5Q208.53 0.5 208.53-7.85L208.53-7.85 208.53-22.9 205.73-22.9 205.73-23.8 217.83-23.8 217.83-6.65Q217.83-3.65 218.26-2.7 218.68-1.75 219.96-1.75 221.23-1.75 222.23-3.3 223.23-4.85 223.23-7.6L223.23-7.6 223.23-22.9 220.93-22.9 220.93-23.8 232.53-23.8 232.53-0.9 235.28-0.9ZM252.98-22.4L252.98-22.4Q251.13-22.4 249.73-20 248.33-17.6 248.33-14.3L248.33-14.3 248.33-0.9 251.88-0.9 251.88 0 236.28 0 236.28-0.9 239.03-0.9 239.03-22.9 236.28-22.9 236.28-23.8 248.33-23.8 248.33-19Q248.98-21.55 250.83-22.93 252.68-24.3 255.03-24.3 257.38-24.3 258.85-22.98 260.33-21.65 260.33-19.23 260.33-16.8 259.23-15.5 258.13-14.2 255.85-14.2 253.58-14.2 252.5-15.7 251.43-17.2 252.23-19.85L252.23-19.85 254.03-19.85Q255.28-22.4 252.98-22.4ZM270.57-33.9L270.57-35 296.57-35 297.07-24.6 296.17-24.6Q294.32-30 291.9-31.95 289.47-33.9 284.67-33.9L284.67-33.9 283.27-33.9 283.27-17.65 285.52-17.65Q287.92-17.65 289.52-19.4 291.12-21.15 291.72-24.2L291.72-24.2 292.47-24.2 292.47-9.4 291.62-9.4Q290.82-13.15 289.4-14.75 287.97-16.35 285.52-16.35L285.52-16.35 283.27-16.35 283.27-1.1 289.47-1.1 289.47 0 270.57 0 270.57-1.1 273.52-1.1 273.52-33.9 270.57-33.9ZM313.27-9.85L313.27-9.85 313.27-14.1Q313.27-18.95 312.75-21.18 312.22-23.4 310.32-23.4L310.32-23.4Q309.22-23.4 308.55-22.78 307.87-22.15 307.57-20.7L307.57-20.7Q307.12-18.45 307.12-13.85L307.12-13.85 307.12-9.95Q307.12-4.5 307.45-3.4 307.77-2.3 308.12-1.6L308.12-1.6Q308.67-0.4 310.27-0.4L310.27-0.4Q312.22-0.4 312.82-2.65L312.82-2.65Q313.27-4.25 313.27-9.85ZM310.17 0.5Q303.92 0.5 300.72-2.7 297.52-5.9 297.52-11.88 297.52-17.85 300.95-21.08 304.37-24.3 310.57-24.3 316.77-24.3 319.82-21.33 322.87-18.35 322.87-12.25L322.87-12.25Q322.87 0.5 310.17 0.5L310.17 0.5ZM340.42-9.85L340.42-9.85 340.42-14.1Q340.42-18.95 339.89-21.18 339.37-23.4 337.47-23.4L337.47-23.4Q336.37-23.4 335.69-22.78 335.02-22.15 334.72-20.7L334.72-20.7Q334.27-18.45 334.27-13.85L334.27-13.85 334.27-9.95Q334.27-4.5 334.59-3.4 334.92-2.3 335.27-1.6L335.27-1.6Q335.82-0.4 337.42-0.4L337.42-0.4Q339.37-0.4 339.97-2.65L339.97-2.65Q340.42-4.25 340.42-9.85ZM337.32 0.5Q331.07 0.5 327.87-2.7 324.67-5.9 324.67-11.88 324.67-17.85 328.09-21.08 331.52-24.3 337.72-24.3 343.92-24.3 346.97-21.33 350.02-18.35 350.02-12.25L350.02-12.25Q350.02 0.5 337.32 0.5L337.32 0.5ZM361.56-10.35Q361.56-5.1 362.12-3.38 362.67-1.65 364.14-1.65 365.62-1.65 366.69-2.95 367.77-4.25 367.77-6.8L367.77-6.8 367.77-17.7Q367.77-19.85 366.92-21.35 366.06-22.85 364.42-22.85 362.77-22.85 362.17-20.65 361.56-18.45 361.56-12.95L361.56-12.95 361.56-10.35ZM379.52 0L368.42 0 367.87-3.5Q366.17 0.5 360.97 0.5L360.97 0.5Q356.67 0.5 354.29-2.6 351.92-5.7 351.92-11.85L351.92-11.85Q351.92-24.3 361.81-24.3L361.81-24.3Q366.22-24.3 367.62-21.85L367.62-21.85 367.62-36.6 364.56-36.6 364.56-37.5 377.06-37.5 377.06-0.9 379.52-0.9 379.52 0Z" opacity="1" transform="matrix(1,0,0,1,0,0)" fill="#000000" class="slogan-text-1" data-fill-palette-color="quaternary" id="text-1"></path></svg></g></svg></g></svg></g></svg></g><g transform="matrix(1,0,0,1,40.71326227438702,0)"><svg viewBox="0 0 131.7319166783831 131.37080120148065" height="131.37080120148065" width="131.7319166783831"><g><svg xmlns="http://www.w3.org/2000/svg" xmlns:xlink="http://www.w3.org/1999/xlink" version="1.1" x="0" y="0" viewBox="10.603 10.71 78.795 78.57900000000001" enable-background="new 0 0 100 100" xml:space="preserve" height="131.37080120148065" width="131.7319166783831" class="icon-icon-0" data-fill-palette-color="quaternary" id="icon-0"><path d="M79.236 48.382L79.894 48.322C79.106 39.623 71.023 32.886 61.43 32.886L61.168 32.887C56.553 32.958 52.241 34.54 48.895 37.333A20 20 0 0 0 40.74 35.698C36.807 35.751 33.167 36.891 30.179 38.828L23.373 10.71 20.457 11.416 27.588 40.876A16.8 16.8 0 0 0 24.349 45.07L13.462 21.673 10.742 22.939 22.581 48.382H10.603V49.882C10.603 71.611 28.274 89.289 49.996 89.289 71.723 89.289 89.398 71.611 89.398 49.882V48.382zM61.212 35.888L61.436 35.887C69.403 35.887 76.114 41.325 76.876 48.382H58.938C57.846 44.488 55.26 41.158 51.787 38.888 54.453 37.003 57.726 35.942 61.212 35.888M40.779 38.7C47.774 38.605 53.792 42.682 55.799 48.383H26.172C28.171 42.781 34.059 38.791 40.779 38.7M49.995 86.29C30.43 86.29 14.422 70.766 13.633 51.383H56.469L56.471 51.395 56.601 51.383H86.368C85.578 70.765 69.564 86.29 49.995 86.29" fill="#000000" data-fill-palette-color="quaternary"></path></svg></g></svg></g><g></g></svg></g></svg></g></svg></g></svg></g><defs></defs><mask id="d6d4ffb0-1c44-4659-ab93-6f39729c9747"><g id="SvgjsG3954"><svg viewBox="0 0 333.90454557049503 333.90454557049503" height="333.90454557049503" width="333.90454557049503"><g><svg></svg></g><g><svg viewBox="0 0 333.90454557049503 333.90454557049503" height="333.90454557049503" width="333.90454557049503"><g><path d="M0 166.952c0-92.205 74.747-166.952 166.952-166.952 92.205 0 166.952 74.747 166.953 166.952 0 92.205-74.747 166.952-166.953 166.953-92.205 0-166.952-74.747-166.952-166.953zM166.952 328.809c89.391 0 161.856-72.466 161.857-161.857 0-89.391-72.466-161.856-161.857-161.856-89.391 0-161.856 72.466-161.856 161.856 0 89.391 72.466 161.856 161.856 161.857z" fill="white" stroke="transparent"></path><ellipse rx="160.27418187383762" ry="160.27418187383762" cx="166.95227278524752" cy="166.95227278524752" fill="white" stroke="transparent" stroke-width="0" fill-opacity="1"></ellipse></g><g transform="matrix(1,0,0,1,91.3775304893148,71.17305217166896)"><svg viewBox="0 0 151.14948459186544 191.55844122715712" height="191.55844122715712" width="151.14948459186544"><g><svg viewBox="0 0 151.14948459186544 191.55844122715712" height="191.55844122715712" width="151.14948459186544"><g><svg viewBox="0 0 213.15844122715714 270.14514039621355" height="191.55844122715712" width="151.14948459186544"><g transform="matrix(1,0,0,1,0,150.1839442226444)"><svg viewBox="0 0 213.15844122715714 119.96119617356915" height="119.96119617356915" width="213.15844122715714"><g id="SvgjsG3953"><svg viewBox="0 0 213.15844122715714 119.96119617356915" height="119.96119617356915" width="213.15844122715714" id="SvgjsSvg3952"><g><svg viewBox="0 0 213.15844122715714 79.69104449907564" height="79.69104449907564" width="213.15844122715714"><g transform="matrix(1,0,0,1,0,0)"><svg width="213.15844122715714" viewBox="-0.08296294814800001 -37.5125 154.35296294692304 57.712500000000006" height="79.69104449907564" data-palette-color="#000000"><path d="M18.45-11.6L18.45-11.6Q16.3-11.8 14.03-12.18 11.75-12.55 9.75-13.1L9.75-13.1Q9.65-13.15 9.3-13.25 8.95-13.35 8.95-13.45L8.95-13.45Q8.95-13.6 9.3-13.65 9.65-13.7 9.75-13.7L9.75-13.7Q10.75-13.8 12.3-13.83 13.85-13.85 14.85-13.7L14.85-13.7Q15.8-13.55 17.07-13.45 18.35-13.35 19.65-13.4 20.95-13.45 22.18-13.65 23.4-13.85 24.3-14.25L24.3-14.25Q24.7-14.4 25.2-14.85 25.7-15.3 25.95-15.75L25.95-15.75Q24.35-14.7 22.4-14.45 20.45-14.2 18.32-14.35 16.2-14.5 14.03-14.8 11.85-15.1 9.75-15.2L9.75-15.2Q8.4-15.25 6.98-15.1 5.55-14.95 4.23-14.5 2.9-14.05 1.8-13.3 0.7-12.55 0-11.45L0-11.45Q-0.1-11.2-0.08-11.38-0.05-11.55-0.05-11.65L-0.05-11.65Q0.35-13.65 1.83-14.68 3.3-15.7 5.05-16.25L5.05-16.25Q5.7-18.95 6.55-21.6 7.4-24.25 8.13-26.75 8.85-29.25 9.33-31.6 9.8-33.95 9.75-36.15L9.75-36.15Q9.8-36.25 9.78-36.35 9.75-36.45 9.85-36.45L9.85-36.45Q9.95-36.5 9.98-36.33 10-36.15 10-36.1L10-36.1Q10.65-33.9 10.5-31.53 10.35-29.15 9.78-26.7 9.2-24.25 8.38-21.73 7.55-19.2 6.85-16.65L6.85-16.65 8.15-16.8Q8.4-17.95 8.68-19.15 8.95-20.35 9.25-21.25L9.25-21.25Q9.35-21.55 9.58-22.48 9.8-23.4 10.05-24.7 10.3-26 10.58-27.5 10.85-29 11.03-30.4 11.2-31.8 11.23-32.95 11.25-34.1 11.1-34.75L11.1-34.75Q11.1-35.2 11.15-35.2L11.15-35.2Q11.25-35.2 11.35-35.08 11.45-34.95 11.5-34.85L11.5-34.85Q12.05-34 12.33-32.8 12.6-31.6 12.68-30.28 12.75-28.95 12.63-27.65 12.5-26.35 12.25-25.4L12.25-25.4Q11.65-23.3 10.95-21.1 10.25-18.9 9.45-16.8L9.45-16.8 10.3-16.8 10.55-16.8Q10.75-17.65 11.05-18.5 11.35-19.35 11.6-20.2L11.6-20.2Q12.25-22.55 12.9-25.03 13.55-27.5 13.65-30.35L13.65-30.35Q13.65-30.6 13.7-30.6L13.7-30.6Q13.8-30.6 13.83-30.5 13.85-30.4 13.9-30.3L13.9-30.3Q14.35-29.2 14.33-27.5 14.3-25.8 14-23.93 13.7-22.05 13.23-20.13 12.75-18.2 12.35-16.65L12.35-16.65Q14.2-16.5 15.93-16.25 17.65-16 19.4-15.8L19.4-15.8Q20.05-18.5 20.88-21.13 21.7-23.75 22.43-26.23 23.15-28.7 23.63-31.05 24.1-33.4 24.05-35.55L24.05-35.55Q24.05-35.8 24.15-35.8L24.15-35.8Q24.25-35.8 24.3-35.7 24.35-35.6 24.35-35.55L24.35-35.55Q25-33.3 24.83-30.88 24.65-28.45 24.05-25.95 23.45-23.45 22.6-20.88 21.75-18.3 21.05-15.7L21.05-15.7Q21.35-15.6 21.68-15.65 22-15.7 22.35-15.7L22.35-15.7Q22.55-16.95 22.9-18.28 23.25-19.6 23.55-20.55L23.55-20.55Q23.65-20.85 23.88-21.78 24.1-22.7 24.35-24 24.6-25.3 24.88-26.8 25.15-28.3 25.33-29.73 25.5-31.15 25.53-32.3 25.55-33.45 25.4-34.1L25.4-34.1Q25.3-34.45 25.45-34.5L25.45-34.5Q25.55-34.55 25.65-34.43 25.75-34.3 25.8-34.2L25.8-34.2Q26.35-33.35 26.65-32.15 26.95-30.95 27.03-29.65 27.1-28.35 26.98-27.05 26.85-25.75 26.6-24.8L26.6-24.8Q26-22.55 25.2-20.25 24.4-17.95 23.55-15.7L23.55-15.7 24.8-15.9Q25.05-16.75 25.35-17.68 25.65-18.6 25.9-19.5L25.9-19.5Q26.6-21.9 27.23-24.38 27.85-26.85 27.95-29.65L27.95-29.65Q27.95-29.9 27.95-29.93 27.95-29.95 28-29.95L28-29.95Q28.1-29.95 28.2-29.65L28.2-29.65Q28.8-28.3 28.65-26.15 28.5-24 28.05-21.68 27.6-19.35 27-17.18 26.4-15 26.1-13.7L26.1-13.7Q25.55-11.3 24.7-8.75 23.85-6.2 23.2-4.3L23.2-4.3Q23.05-3.7 22.8-3.7L22.8-3.7Q22.7-3.75 22.73-4 22.75-4.25 22.75-4.5L22.75-4.5Q22.85-6.65 23.18-8.78 23.5-10.9 24.05-13.15L24.05-13.15Q22.8-12.3 21.2-11.9 19.6-11.5 18.45-11.6ZM8.45-5.15L8.45-5.15Q8.55-7.55 8.9-9.85L8.9-9.85Q8.05-9.95 7.23-10.08 6.4-10.2 5.6-10.35L5.6-10.35Q5.4-7.65 5.75-5.03 6.1-2.4 7.25-0.2L7.25-0.2Q7.35 0 7.35 0L7.35 0Q7.35 0.25 7.05 0L7.05 0Q5.05-2.2 4.48-4.93 3.9-7.65 4.1-10.55L4.1-10.55 3-10.75Q2.75-10.75 2.58-10.85 2.4-10.95 2.4-11.05L2.4-11.05Q2.4-11.15 2.6-11.2 2.8-11.25 2.95-11.3L2.95-11.3Q5.8-11.9 8.65-11.75 11.5-11.6 14.45-11.25L14.45-11.25Q16.3-11.05 18.2-10.9 20.1-10.75 22.2-11.25L22.2-11.25Q22.4-11.3 22.45-11.2L22.45-11.2Q22.45-11.15 22.25-10.95L22.25-10.95Q21.4-10.15 19.95-9.85L19.95-9.85Q19.7-7.15 20-4.53 20.3-1.9 21.5 0L21.5 0Q21.65 0.15 21.5 0.15L21.5 0.15Q21.45 0.15 21.4 0.1 21.35 0.05 21.25 0L21.25 0Q20.3-0.8 19.73-1.88 19.15-2.95 18.85-4.2 18.55-5.45 18.48-6.83 18.4-8.2 18.45-9.6L18.45-9.6Q17.4-9.5 16.3-9.5 15.2-9.5 14.15-9.55 13.1-9.6 12.15-9.68 11.2-9.75 10.5-9.8L10.5-9.8Q10.1-8.45 9.65-7.23 9.2-6 8.9-5L8.9-5Q8.8-4.75 8.7-4.53 8.6-4.3 8.5-4.4L8.5-4.4Q8.4-4.4 8.43-4.65 8.45-4.9 8.45-5.15ZM22.1-2.9L22.1-2.9Q22.35-1.95 22.55-1.2 22.75-0.45 23.1 0L23.1 0Q23.15 0.05 23.2 0.13 23.25 0.2 23.15 0.25L23.15 0.25Q22.95 0.25 22.6 0L22.6 0Q22.05-0.4 21.63-0.9 21.2-1.4 20.95-2.9L20.95-2.9Q20.85-3.5 20.85-4.35 20.85-5.2 20.9-5.98 20.95-6.75 21.08-7.3 21.2-7.85 21.35-7.8L21.35-7.8Q21.45-7.8 21.5-7.55 21.55-7.3 21.6-7 21.65-6.7 21.68-6.4 21.7-6.1 21.7-5.95L21.7-5.95Q21.8-5.1 21.88-4.35 21.95-3.6 22.1-2.9ZM7.8-3.55L7.8-3.55Q8.1-1.75 8.75-0.2L8.75-0.2Q8.85 0.15 8.8 0.15L8.8 0.15Q8.55 0.15 8.25-0.15L8.25-0.15Q7.6-0.9 7.28-1.5 6.95-2.1 6.7-3.55L6.7-3.55Q6.6-4.1 6.58-4.95 6.55-5.8 6.6-6.6 6.65-7.4 6.78-7.95 6.9-8.5 7.05-8.5L7.05-8.5Q7.1-8.5 7.18-8.25 7.25-8 7.3-7.68 7.35-7.35 7.4-7.03 7.45-6.7 7.45-6.6L7.45-6.6Q7.55-5.75 7.63-5 7.7-4.25 7.8-3.55ZM1.7-11.6L1.7-11.6Q1.05-11.25 0.8-11 0.55-10.75 0.2-10.35L0.2-10.35Q0-10.1 0-10.2 0-10.3 0-10.45L0-10.45Q0.2-11.2 0.5-11.65 0.8-12.1 1.5-12.65L1.5-12.65Q1.85-12.95 2.48-13.15 3.1-13.35 3.7-13.43 4.3-13.5 4.75-13.48 5.2-13.45 5.2-13.3L5.2-13.3Q5.2-13.15 4.63-12.9 4.05-12.65 3.9-12.55L3.9-12.55Q3.3-12.3 2.75-12.08 2.2-11.85 1.7-11.6ZM43.85-20.4L43.85-20.4Q44.25-19.9 44.47-19.15 44.7-18.4 44.65-17.53 44.6-16.65 44.25-15.7 43.9-14.75 43.15-13.85L43.15-13.85Q41.7-12.15 39.97-11.23 38.25-10.3 36.85-10.3L36.85-10.3Q36-10.3 36.85-10.6L36.85-10.6Q37.3-10.75 37.92-11.08 38.55-11.4 39.25-11.88 39.95-12.35 40.67-13 41.4-13.65 42-14.5L42-14.5Q43-15.9 43.17-17.23 43.35-18.55 42.65-19.25L42.65-19.25Q42.05-19.85 41.25-19.93 40.45-20 38.85-19.05L38.85-19.05Q37.4-18.2 36.25-16.95 35.1-15.7 34.1-14.3L34.1-14.3Q33.55-13.6 33.37-13.6 33.2-13.6 33.5-14.5L33.5-14.5Q34.1-16.25 35.17-17.75 36.25-19.25 37.75-20.3L37.75-20.3Q38.85-21.05 39.77-21.35 40.7-21.65 41.47-21.6 42.25-21.55 42.85-21.23 43.45-20.9 43.85-20.4ZM46.55-16.9L46.55-16.9Q46.35-15.7 45.92-14.88 45.5-14.05 44.97-13.48 44.45-12.9 43.92-12.55 43.4-12.2 43-11.9L43-11.9Q42.8-11.75 42.7-11.85 42.6-11.95 42.85-12.2L42.85-12.2Q43.75-12.95 44.67-14.23 45.6-15.5 45.65-17.05L45.65-17.05Q45.65-19.7 44.35-21.1L44.35-21.1Q43.05-22.5 41.1-22.33 39.15-22.15 37.05-20.8L37.05-20.8Q35.7-19.95 34.67-18.82 33.65-17.7 32.9-16.43 32.15-15.15 31.67-13.8 31.2-12.45 31-11.1L31-11.1Q30.8-9.8 30.62-8.3 30.45-6.8 30.62-5.35 30.8-3.9 31.55-2.58 32.3-1.25 33.9-0.3L33.9-0.3Q34.15-0.15 34.42-0.1 34.7-0.05 34.7 0L34.7 0Q34.7 0.1 34.45 0.13 34.2 0.15 33.9 0.05L33.9 0.05Q32.65-0.2 31.77-0.98 30.9-1.75 30.35-2.75 29.8-3.75 29.5-4.85 29.2-5.95 29.15-6.85L29.15-6.85Q28.85-10.8 30.25-14.65L30.25-14.65Q30.55-15.45 31.02-16.45 31.5-17.45 32.2-18.48 32.9-19.5 33.85-20.48 34.8-21.45 36-22.2L36-22.2Q37.15-22.9 38.4-23.25 39.65-23.6 40.9-23.58 42.15-23.55 43.25-23.13 44.35-22.7 45.2-21.85L45.2-21.85Q45.95-21.05 46.37-19.8 46.8-18.55 46.55-16.9ZM42-18.7L42-18.7Q42.6-18 42.15-16.53 41.7-15.05 40.05-13.55L40.05-13.55Q39.15-12.7 38.3-12.18 37.45-11.65 36.15-11.25L36.15-11.25Q35.6-9.35 35.45-7.5 35.3-5.65 35.55-4.5L35.55-4.5Q35.6-4.05 35.87-3.63 36.15-3.2 36.67-2.98 37.2-2.75 38.05-2.8 38.9-2.85 40.15-3.35L40.15-3.35Q40.5-3.5 40.57-3.43 40.65-3.35 40.25-3.1L40.25-3.1Q39.35-2.4 38.35-2.13 37.35-1.85 36.47-1.95 35.6-2.05 34.97-2.55 34.35-3.05 34.15-3.9L34.15-3.9Q33.75-5.65 33.8-7.55 33.85-9.45 34.37-11.3 34.9-13.15 35.87-14.78 36.85-16.4 38.3-17.55L38.3-17.55Q41-19.7 42-18.7ZM41.5-2.75L41.5-2.75Q41.15-2.25 40.62-1.78 40.1-1.3 39.42-0.93 38.75-0.55 38.02-0.3 37.3-0.05 36.55-0.05L36.55-0.05Q35.25-0.05 34.12-0.63 33-1.2 32.4-2.95L32.4-2.95Q32.3-3.15 32.3-3.33 32.3-3.5 32.4-3.5L32.4-3.5Q32.6-3.6 32.8-3.38 33-3.15 33.2-2.9L33.2-2.9Q33.75-2.25 34.62-1.75 35.5-1.25 36.3-1.25L36.3-1.25Q37.8-1.25 38.9-1.7 40-2.15 41-2.9L41-2.9Q41.25-3.05 41.57-3.2 41.9-3.35 41.5-2.75ZM40.8-17.35L40.8-17.35Q40.6-17.75 39.35-16.7L39.35-16.7Q38.2-15.8 37.52-14.63 36.85-13.45 36.35-12.05L36.35-12.05Q37.3-12.5 38.1-13.08 38.9-13.65 39.6-14.2L39.6-14.2Q40.35-14.85 40.7-15.9 41.05-16.95 40.8-17.35ZM64.05-17.35L64.05-17.35Q64.05-14.85 63.37-12.13 62.7-9.4 61.6-6.75 60.5-4.1 59.07-1.73 57.65 0.65 56.15 2.35L56.15 2.35Q55.6 2.95 55.5 2.9 55.4 2.85 55.6 2.15L55.6 2.15Q55.9 1.35 56.37 0.35 56.85-0.65 57.32-1.63 57.8-2.6 58.27-3.5 58.75-4.4 59.05-5L59.05-5Q59.4-5.75 59.85-6.98 60.3-8.2 60.72-9.7 61.15-11.2 61.55-12.85 61.95-14.5 62.25-16.03 62.55-17.55 62.72-18.82 62.9-20.1 62.85-20.9L62.85-20.9Q62.8-21.8 62.87-22.08 62.95-22.35 63.05-22.28 63.15-22.2 63.27-21.95 63.4-21.7 63.5-21.5L63.5-21.5Q63.85-20.5 63.95-19.25 64.05-18 64.05-17.35ZM54.2-3.55L54.2-3.55Q53.85-3.15 53.25-2.8 52.65-2.45 52.1-2.45L52.1-2.45Q50.9-2.45 50.12-3.15 49.35-3.85 48.9-4.88 48.45-5.9 48.27-7.05 48.1-8.2 48.1-9.1L48.1-9.1Q48.1-10.45 48.37-12.23 48.65-14 49.22-15.78 49.8-17.55 50.62-19.13 51.45-20.7 52.6-21.65L52.6-21.65Q52.9-21.85 53.15-22.03 53.4-22.2 53-21.5L53-21.5Q52.7-20.95 52.42-20.55 52.15-20.15 52-19.65L52-19.65Q51.2-18.2 50.72-16.6 50.25-15 49.95-13.35L49.95-13.35Q49.5-11.15 49.5-8.95L49.5-8.95Q49.5-8.15 49.57-7.2 49.65-6.25 49.95-5.4 50.25-4.55 50.87-3.98 51.5-3.4 52.6-3.4L52.6-3.4Q52.9-3.4 53.3-3.55 53.7-3.7 53.95-3.85L53.95-3.85Q54.35-4 54.35-3.9 54.35-3.8 54.2-3.55ZM65.34-16.5L65.34-16.5Q65.55-15.75 65.55-14.75L65.55-14.75Q65.55-12.7 64.95-10.23 64.34-7.75 63.37-5.1 62.4-2.45 61.07 0.25 59.75 2.95 58.32 5.45 56.9 7.95 55.4 10.13 53.9 12.3 52.55 13.9L52.55 13.9Q52.5 13.95 52.37 14.1 52.25 14.25 52.12 14.38 52 14.5 51.9 14.55 51.8 14.6 51.8 14.4L51.8 14.4Q51.8 14.3 52.42 13.08 53.05 11.85 54 10.03 54.95 8.2 56.07 6.08 57.2 3.95 58.25 2 59.3 0.05 60.07-1.45 60.85-2.95 61.1-3.5L61.1-3.5Q62.55-6.7 63.57-9.93 64.59-13.15 65-16.6L65-16.6Q65.05-17 65.07-17.03 65.09-17.05 65.34-16.5ZM62.1-20.2L62.1-20.2Q62.1-17.4 61.32-14.53 60.55-11.65 59.4-8.85 58.25-6.05 56.87-3.43 55.5-0.8 54.25 1.45L54.25 1.45Q52 5.65 50.45 9.98 48.9 14.3 48.3 19L48.3 19Q48.2 19.55 48.15 19.45L48.15 19.45Q48.1 19.45 48.02 19.18 47.95 18.9 47.9 18.57 47.85 18.25 47.82 17.9 47.8 17.55 47.8 17.3L47.8 17.3Q47.8 15.05 48.3 12.75 48.8 10.45 49.6 8.25 50.4 6.05 51.37 3.95 52.35 1.85 53.35 0L53.35 0 52 0Q50.5 0 49.4-0.7 48.3-1.4 47.6-2.55 46.9-3.7 46.52-5.25 46.15-6.8 46.15-8.5L46.15-8.5Q46.15-9.15 46.3-10.33 46.45-11.5 46.75-12.78 47.05-14.05 47.5-15.28 47.95-16.5 48.5-17.25L48.5-17.25Q48.9-17.8 48.95-17.7 49-17.6 48.85-17.05L48.85-17.05Q48.2-15.15 47.82-13.1 47.45-11.05 47.45-9.05L47.45-9.05Q47.45-7.9 47.6-6.55 47.75-5.2 48.22-4.08 48.7-2.95 49.6-2.2 50.5-1.45 52.05-1.45L52.05-1.45Q53.15-1.45 54.05-2.2 54.95-2.95 55.67-4.05 56.4-5.15 56.97-6.45 57.55-7.75 58-8.85L58-8.85Q57.5-8.15 56.82-7.48 56.15-6.8 55.4-6.25 54.65-5.7 53.9-5.35 53.15-5 52.45-5L52.45-5Q51.75-5 51.35-5.45 50.95-5.9 50.72-6.58 50.5-7.25 50.45-7.95 50.4-8.65 50.4-9.2L50.4-9.2Q50.4-11 50.62-12.83 50.85-14.65 51.35-16.43 51.85-18.2 52.67-19.83 53.5-21.45 54.7-22.8L54.7-22.8Q54.8-22.95 54.95-23.08 55.1-23.2 55.22-23.25 55.35-23.3 55.35-23.23 55.35-23.15 55.15-22.8L55.15-22.8Q53.7-20.1 52.77-16.8 51.85-13.5 51.85-10.4L51.85-10.4Q51.85-10.1 51.87-9.43 51.9-8.75 52.02-8.05 52.15-7.35 52.42-6.83 52.7-6.3 53.15-6.3L53.15-6.3Q53.3-6.3 53.55-6.45L53.55-6.45Q55.65-7.5 57.1-9.35 58.55-11.2 59.5-13.48 60.45-15.75 60.87-18.18 61.3-20.6 61.35-22.8L61.35-22.8Q61.35-23.6 61.45-23.65 61.55-23.7 61.8-22.8L61.8-22.8Q62.1-21.35 62.1-20.2ZM52.55 9.4L52.55 9.4Q52.55 9.75 52.32 10.55 52.1 11.35 51.8 12.25 51.5 13.15 51.2 14 50.9 14.85 50.75 15.3L50.75 15.3Q50.35 16.4 50.15 17.48 49.95 18.55 49.7 19.7L49.7 19.7Q49.7 19.8 49.65 20 49.6 20.2 49.45 20.2L49.45 20.2Q49.35 20.2 49.3 19.95 49.25 19.7 49.25 19.6L49.25 19.6Q49.15 19.2 49.12 18.5 49.1 17.8 49.15 17.4L49.15 17.4Q49.3 16.15 49.7 14.73 50.1 13.3 50.57 12.08 51.05 10.85 51.55 10.05 52.05 9.25 52.4 9.25L52.4 9.25Q52.55 9.25 52.55 9.4ZM75.84-11.45L75.84-11.45Q75.69-11.1 75.67-11.33 75.64-11.55 75.69-11.65L75.69-11.65Q76.04-13.6 77.09-14.8L77.09-14.8Q77.29-16.5 77.82-18.43 78.34-20.35 78.94-22.3 79.54-24.25 80.12-26.13 80.69-28 81.09-29.6L81.09-29.6Q79.94-29.6 78.89-29.75L78.89-29.75Q78.49-29.85 78.49-29.85L78.49-29.85Q78.44-30 78.84-30.2L78.84-30.2Q80.79-31.2 83.04-31.28 85.29-31.35 87.54-31.15L87.54-31.15Q88.99-31.05 90.44-31 91.89-30.95 93.49-31.45L93.49-31.45Q93.74-31.5 93.74-31.35L93.74-31.35Q93.74-31.25 93.59-31.1L93.59-31.1Q93.04-30.45 92.17-30.13 91.29-29.8 90.24-29.65 89.19-29.5 88.12-29.5 87.04-29.5 86.09-29.5L86.09-29.5Q86.34-28.3 86.29-26.73 86.24-25.15 86.02-23.45 85.79-21.75 85.42-20.05 85.04-18.35 84.69-16.9L84.69-16.9Q86.59-16.65 88.32-16.53 90.04-16.4 91.44-17.2L91.44-17.2Q91.59-17.25 91.59-17.15L91.59-17.15Q91.59-17 91.54-16.9L91.54-16.9Q90.64-15.7 89.49-15.33 88.34-14.95 87.09-15.03 85.84-15.1 84.49-15.35 83.14-15.6 81.89-15.6L81.89-15.6Q80.29-15.6 78.62-14.68 76.94-13.75 75.84-11.45ZM80.69-5.15L80.69-5.15Q80.74-6.4 80.84-7.75 80.94-9.1 81.19-10.4L81.19-10.4Q80.99-10.45 80.27-10.58 79.54-10.7 78.84-10.75L78.84-10.75Q78.19-10.8 78.02-10.58 77.84-10.35 77.79-9.75L77.79-9.75Q77.54-7.2 77.99-4.7 78.44-2.2 79.49-0.2L79.49-0.2Q79.59-0.05 79.54 0.05 79.49 0.15 79.34 0L79.34 0Q77.69-2 77.09-4.03 76.49-6.05 76.39-8.35L76.39-8.35Q76.34-9.35 76.82-10.2 77.29-11.05 78.29-11.5L78.29-11.5Q79.94-12.2 81.59-12.1 83.24-12 85.04-11.8L85.04-11.8Q86.09-11.7 87.27-11.63 88.44-11.55 89.59-12.1L89.59-12.1Q89.74-12.2 89.79-12.15L89.79-12.15Q89.84-12.1 89.79-12 89.74-11.9 89.69-11.8L89.69-11.8Q89.24-11 88.37-10.65 87.49-10.3 86.49-10.2 85.49-10.1 84.52-10.15 83.54-10.2 82.89-10.2L82.89-10.2Q82.44-8.7 81.94-7.4 81.44-6.1 81.09-5L81.09-5Q80.89-4.35 80.79-4.4L80.79-4.4Q80.69-4.45 80.69-4.67 80.69-4.9 80.69-5.15ZM76.04-29.65L76.04-29.65Q75.94-29.3 75.87-29.48 75.79-29.65 75.84-29.8L75.84-29.8Q76.09-31.6 76.89-32.85 77.69-34.1 78.79-34.88 79.89-35.65 81.19-36.02 82.49-36.4 83.79-36.45L83.79-36.45Q85.54-36.5 87.24-36.33 88.94-36.15 90.57-36 92.19-35.85 93.67-35.88 95.14-35.9 96.44-36.35L96.44-36.35Q96.59-36.4 96.59-36.3L96.59-36.3 96.44-36.1Q95.14-34.95 93.59-34.65 92.04-34.35 90.37-34.43 88.69-34.5 86.94-34.73 85.19-34.95 83.49-34.85L83.49-34.85Q82.39-34.8 81.24-34.45 80.09-34.1 79.09-33.48 78.09-32.85 77.29-31.9 76.49-30.95 76.04-29.65ZM90.59-31.65L90.59-31.65Q88.99-31.75 87.17-32.05 85.34-32.35 83.74-32.75L83.74-32.75Q83.64-32.75 83.37-32.85 83.09-32.95 83.09-33.1L83.09-33.1Q83.09-33.2 83.32-33.27 83.54-33.35 83.64-33.35L83.64-33.35Q83.99-33.45 84.52-33.52 85.04-33.6 85.62-33.65 86.19-33.7 86.74-33.7 87.29-33.7 87.69-33.7L87.69-33.7Q88.44-33.65 89.62-33.65 90.79-33.65 91.99-33.77 93.19-33.9 94.22-34.13 95.24-34.35 95.79-34.75L95.79-34.75Q96.04-35 96.04-34.8L96.04-34.8Q96.04-34.7 95.97-34.6 95.89-34.5 95.84-34.4L95.84-34.4Q95.44-33.7 94.79-33.18 94.14-32.65 93.39-32.27 92.64-31.9 91.92-31.75 91.19-31.6 90.59-31.65ZM87.34-12.25L87.34-12.25Q86.04-12.35 84.67-12.7 83.29-13.05 81.99-13.5L81.99-13.5Q81.94-13.5 81.77-13.6 81.59-13.7 81.59-13.85L81.59-13.85Q81.59-13.95 81.84-14.05 82.09-14.15 82.34-14.2L82.34-14.2Q82.74-14.3 83.49-14.38 84.24-14.45 84.89-14.35L84.89-14.35Q85.69-14.25 86.64-14.23 87.59-14.2 88.44-14.33 89.29-14.45 89.99-14.75 90.69-15.05 91.04-15.5L91.04-15.5Q91.09-15.65 91.24-15.65L91.24-15.65 91.29-15.65Q91.34-15.55 91.32-15.4 91.29-15.25 91.24-15.15L91.24-15.15Q90.69-13.7 89.49-12.95 88.29-12.2 87.34-12.25ZM81.54-21.25L81.54-21.25Q81.59-21.5 81.87-22.33 82.14-23.15 82.49-24.3 82.84-25.45 83.17-26.8 83.49-28.15 83.64-29.5L83.64-29.5 82.49-29.5Q82.09-26.35 80.97-23.08 79.84-19.8 78.94-16.45L78.94-16.45Q79.34-16.65 79.72-16.8 80.09-16.95 80.49-17.05L80.49-17.05Q80.74-18.15 81.02-19.28 81.29-20.4 81.54-21.25ZM84.19-24.85L84.19-24.85Q83.64-22.75 83.17-20.98 82.69-19.2 81.94-17.2L81.94-17.2 82.09-17.2Q82.24-17.2 82.42-17.2 82.59-17.2 82.84-17.1L82.84-17.1Q83.04-17.9 83.29-18.63 83.54-19.35 83.79-20.2L83.79-20.2Q84.39-22.3 84.89-24.43 85.39-26.55 85.59-29.5L85.59-29.5 84.59-29.5Q84.59-28.35 84.52-27.03 84.44-25.7 84.19-24.85ZM80.09-3.55L80.09-3.55Q80.24-2.7 80.49-1.88 80.74-1.05 81.04-0.2L81.04-0.2Q81.09-0.1 81.12 0.08 81.14 0.25 81.04 0.25L81.04 0.25Q80.94 0.25 80.79 0.15 80.64 0.05 80.54-0.05L80.54-0.05Q79.94-0.8 79.57-1.45 79.19-2.1 78.94-3.55L78.94-3.55Q78.84-4.1 78.82-4.95 78.79-5.8 78.84-6.6 78.89-7.4 79.02-7.95 79.14-8.5 79.34-8.5L79.34-8.5Q79.39-8.5 79.47-8.25 79.54-8 79.59-7.68 79.64-7.35 79.67-7.03 79.69-6.7 79.69-6.6L79.69-6.6Q79.79-5.75 79.87-5 79.94-4.25 80.09-3.55ZM77.89-30.3L77.89-30.3Q77.49-29.8 77.17-29.33 76.84-28.85 76.59-28.3L76.59-28.3Q76.54-28.2 76.44-28.23 76.34-28.25 76.39-28.65L76.39-28.65Q76.49-29.5 76.64-30.05 76.79-30.6 77.49-31.3L77.49-31.3Q77.74-31.6 78.19-31.88 78.64-32.15 79.04-32.35 79.44-32.55 79.77-32.6 80.09-32.65 80.14-32.45L80.14-32.45Q80.19-32.3 79.82-31.95 79.44-31.6 79.24-31.5L79.24-31.5Q78.44-30.9 77.89-30.3ZM76.09-9.95L76.09-9.95Q75.99-9.75 75.89-9.85L75.89-9.85Q75.84-9.9 75.89-10.35L75.89-10.35Q76.09-11.05 76.34-11.63 76.59-12.2 77.14-12.75L77.14-12.75Q77.34-12.95 77.77-13.15 78.19-13.35 78.57-13.48 78.94-13.6 79.19-13.63 79.44-13.65 79.34-13.5L79.34-13.5Q79.04-13.1 78.57-12.65 78.09-12.2 77.62-11.7 77.14-11.2 76.72-10.75 76.29-10.3 76.09-9.95ZM110.04-13.85L110.04-13.85Q110.19-15.2 110.09-16.7 109.99-18.2 109.46-19.48 108.94-20.75 107.86-21.6 106.79-22.45 105.04-22.45L105.04-22.45Q102.69-22.45 100.94-21.18 99.19-19.9 97.94-18.03 96.69-16.15 95.99-14.03 95.29-11.9 95.09-10.15L95.09-10.15Q94.79-7.75 95.01-6 95.24-4.25 95.84-3.13 96.44-2 97.36-1.45 98.29-0.9 99.39-0.9L99.39-0.9Q100.94-0.85 102.66-1.78 104.39-2.7 105.89-4.38 107.39-6.05 108.51-8.47 109.64-10.9 110.04-13.85ZM93.94-10.4L93.94-10.4Q94.14-12.4 94.94-14.8 95.74-17.2 97.16-19.25 98.59-21.3 100.59-22.68 102.59-24.05 105.24-24.05L105.24-24.05Q107.24-24.05 108.54-23.1 109.84-22.15 110.54-20.68 111.24-19.2 111.44-17.48 111.64-15.75 111.44-14.2L111.44-14.2Q110.99-10.6 109.69-7.95 108.39-5.3 106.64-3.53 104.89-1.75 102.94-0.88 100.99 0 99.19 0L99.19 0Q97.84 0 96.76-0.6 95.69-1.2 94.96-2.48 94.24-3.75 93.96-5.73 93.69-7.7 93.94-10.4ZM99.54-3.35L99.54-3.35Q99.29-3.35 99.04-3.53 98.79-3.7 98.64-3.95 98.49-4.2 98.44-4.45 98.39-4.7 98.64-4.8L98.64-4.8Q98.79-4.85 99.04-4.45 99.29-4.05 99.59-4.05L99.59-4.05Q100.09-4.05 100.76-4.7 101.44-5.35 102.06-6.23 102.69-7.1 103.16-7.95 103.64-8.8 103.84-9.2L103.84-9.2Q104.04-9.6 104.24-10.23 104.44-10.85 104.61-11.5 104.79-12.15 104.91-12.78 105.04-13.4 105.09-13.85L105.09-13.85Q105.34-16.1 104.99-17.32 104.64-18.55 103.84-18.55L103.84-18.55Q103.24-18.55 102.59-18.18 101.94-17.8 101.36-17.2 100.79-16.6 100.34-15.88 99.89-15.15 99.69-14.4L99.69-14.4Q99.44-13.55 99.34-13.55L99.34-13.55Q99.19-13.55 99.19-14.4L99.19-14.4Q99.34-15.35 99.84-16.28 100.34-17.2 101.09-17.93 101.84-18.65 102.74-19.13 103.64-19.6 104.59-19.6L104.59-19.6Q105.54-19.6 106.01-18.93 106.49-18.25 106.69-17.28 106.89-16.3 106.86-15.28 106.84-14.25 106.74-13.65L106.74-13.65Q106.54-12.3 106.11-11.03 105.69-9.75 105.09-8.45L105.09-8.45Q104.79-7.85 104.19-6.98 103.59-6.1 102.81-5.3 102.04-4.5 101.16-3.93 100.29-3.35 99.54-3.35ZM101.14-2.4L101.14-2.4Q101.19-2.1 100.66-1.9 100.14-1.7 99.59-1.7L99.59-1.7Q98.04-1.75 97.21-2.7 96.39-3.65 96.06-4.95 95.74-6.25 95.76-7.65 95.79-9.05 95.89-10L95.89-10Q96.09-11.65 96.69-13.7 97.29-15.75 98.39-17.55 99.49-19.35 101.09-20.58 102.69-21.8 104.89-21.8L104.89-21.8Q106.34-21.8 107.21-21.05 108.09-20.3 108.51-19.2 108.94-18.1 109.01-16.82 109.09-15.55 108.94-14.5L108.94-14.5Q108.84-13.35 108.59-12.4 108.34-11.45 107.89-10.3L107.89-10.3Q107.74-9.95 107.49-9.5 107.24-9.05 106.94-9.1L106.94-9.1Q106.79-9.15 106.86-9.5 106.94-9.85 107.06-10.38 107.19-10.9 107.34-11.48 107.49-12.05 107.54-12.55L107.54-12.55Q107.64-13.4 107.66-14.68 107.69-15.95 107.46-17.15 107.24-18.35 106.64-19.2 106.04-20.05 104.84-20.05L104.84-20.05Q103.09-20.05 101.61-18.93 100.14-17.8 99.04-16.18 97.94-14.55 97.26-12.78 96.59-11 96.44-9.65L96.44-9.65Q96.34-8.85 96.39-7.65 96.44-6.45 96.76-5.28 97.09-4.1 97.84-3.25 98.59-2.4 99.89-2.35L99.89-2.35Q100.29-2.3 100.66-2.43 101.04-2.55 101.14-2.4ZM128.39-13.85L128.39-13.85Q128.53-15.2 128.44-16.7 128.34-18.2 127.81-19.48 127.29-20.75 126.21-21.6 125.14-22.45 123.39-22.45L123.39-22.45Q121.04-22.45 119.29-21.18 117.54-19.9 116.29-18.03 115.04-16.15 114.34-14.03 113.64-11.9 113.44-10.15L113.44-10.15Q113.14-7.75 113.36-6 113.59-4.25 114.19-3.13 114.79-2 115.71-1.45 116.64-0.9 117.74-0.9L117.74-0.9Q119.29-0.85 121.01-1.78 122.74-2.7 124.24-4.38 125.74-6.05 126.86-8.47 127.99-10.9 128.39-13.85ZM112.29-10.4L112.29-10.4Q112.49-12.4 113.29-14.8 114.09-17.2 115.51-19.25 116.94-21.3 118.94-22.68 120.94-24.05 123.59-24.05L123.59-24.05Q125.59-24.05 126.89-23.1 128.19-22.15 128.89-20.68 129.59-19.2 129.78-17.48 129.99-15.75 129.78-14.2L129.78-14.2Q129.34-10.6 128.03-7.95 126.74-5.3 124.99-3.53 123.24-1.75 121.29-0.88 119.34 0 117.54 0L117.54 0Q116.19 0 115.11-0.6 114.04-1.2 113.31-2.48 112.59-3.75 112.31-5.73 112.04-7.7 112.29-10.4ZM117.89-3.35L117.89-3.35Q117.64-3.35 117.39-3.53 117.14-3.7 116.99-3.95 116.84-4.2 116.79-4.45 116.74-4.7 116.99-4.8L116.99-4.8Q117.14-4.85 117.39-4.45 117.64-4.05 117.94-4.05L117.94-4.05Q118.44-4.05 119.11-4.7 119.79-5.35 120.41-6.23 121.04-7.1 121.51-7.95 121.99-8.8 122.19-9.2L122.19-9.2Q122.39-9.6 122.59-10.23 122.79-10.85 122.96-11.5 123.14-12.15 123.26-12.78 123.39-13.4 123.44-13.85L123.44-13.85Q123.69-16.1 123.34-17.32 122.99-18.55 122.19-18.55L122.19-18.55Q121.59-18.55 120.94-18.18 120.29-17.8 119.71-17.2 119.14-16.6 118.69-15.88 118.24-15.15 118.04-14.4L118.04-14.4Q117.79-13.55 117.69-13.55L117.69-13.55Q117.54-13.55 117.54-14.4L117.54-14.4Q117.69-15.35 118.19-16.28 118.69-17.2 119.44-17.93 120.19-18.65 121.09-19.13 121.99-19.6 122.94-19.6L122.94-19.6Q123.89-19.6 124.36-18.93 124.84-18.25 125.04-17.28 125.24-16.3 125.21-15.28 125.19-14.25 125.09-13.65L125.09-13.65Q124.89-12.3 124.46-11.03 124.04-9.75 123.44-8.45L123.44-8.45Q123.14-7.85 122.54-6.98 121.94-6.1 121.16-5.3 120.39-4.5 119.51-3.93 118.64-3.35 117.89-3.35ZM119.49-2.4L119.49-2.4Q119.54-2.1 119.01-1.9 118.49-1.7 117.94-1.7L117.94-1.7Q116.39-1.75 115.56-2.7 114.74-3.65 114.41-4.95 114.09-6.25 114.11-7.65 114.14-9.05 114.24-10L114.24-10Q114.44-11.65 115.04-13.7 115.64-15.75 116.74-17.55 117.84-19.35 119.44-20.58 121.04-21.8 123.24-21.8L123.24-21.8Q124.69-21.8 125.56-21.05 126.44-20.3 126.86-19.2 127.29-18.1 127.36-16.82 127.44-15.55 127.29-14.5L127.29-14.5Q127.19-13.35 126.94-12.4 126.69-11.45 126.24-10.3L126.24-10.3Q126.09-9.95 125.84-9.5 125.59-9.05 125.29-9.1L125.29-9.1Q125.14-9.15 125.21-9.5 125.29-9.85 125.41-10.38 125.54-10.9 125.69-11.48 125.84-12.05 125.89-12.55L125.89-12.55Q125.99-13.4 126.01-14.68 126.04-15.95 125.81-17.15 125.59-18.35 124.99-19.2 124.39-20.05 123.19-20.05L123.19-20.05Q121.44-20.05 119.96-18.93 118.49-17.8 117.39-16.18 116.29-14.55 115.61-12.78 114.94-11 114.79-9.65L114.79-9.65Q114.69-8.85 114.74-7.65 114.79-6.45 115.11-5.28 115.44-4.1 116.19-3.25 116.94-2.4 118.24-2.35L118.24-2.35Q118.64-2.3 119.01-2.43 119.39-2.55 119.49-2.4ZM152.33-26.05L152.33-26.05Q151.63-22.9 150.51-19.78 149.38-16.65 148.28-13.85L148.28-13.85Q148.23-13.6 148.03-13.2 147.83-12.8 147.58-12.9L147.58-12.9Q147.53-12.9 147.53-13.35 147.53-13.8 147.58-13.95L147.58-13.95Q147.68-14.65 147.86-15.63 148.03-16.6 148.26-17.6 148.48-18.6 148.73-19.58 148.98-20.55 149.18-21.25L149.18-21.25Q149.33-21.55 149.56-22.6 149.78-23.65 150.03-25.08 150.28-26.5 150.48-28.15 150.68-29.8 150.73-31.33 150.78-32.85 150.71-34.1 150.63-35.35 150.28-35.95L150.28-35.95Q150.03-36.45 150.18-36.5L150.18-36.5Q150.38-36.5 150.63-36.25L150.63-36.25Q151.38-35.5 151.81-34.23 152.23-32.95 152.43-31.48 152.63-30 152.58-28.55 152.53-27.1 152.33-26.05ZM153.63-31.6L153.63-31.6Q154.13-30.6 154.23-29.15 154.33-27.7 154.18-26.03 154.03-24.35 153.71-22.58 153.38-20.8 152.98-19.18 152.58-17.55 152.21-16.15 151.83-14.75 151.58-13.85L151.58-13.85Q150.88-11.25 150.31-8.68 149.73-6.1 149.73-4.3L149.73-4.3Q149.73-3.65 149.68-3.65L149.68-3.65Q149.58-3.55 149.46-3.8 149.33-4.05 149.23-4.3L149.23-4.3Q148.73-6.1 148.81-8.03 148.88-9.95 149.28-11.98 149.68-14 150.31-16.07 150.93-18.15 151.53-20.2L151.53-20.2Q152.23-22.8 152.93-25.63 153.63-28.45 153.38-31.6L153.38-31.6Q153.38-31.85 153.36-31.88 153.33-31.9 153.38-31.9L153.38-31.9Q153.48-31.9 153.63-31.6ZM146.43-21.35L146.43-21.35Q143.43-20.05 141.31-17.73 139.18-15.4 138.08-12.55L138.08-12.55Q137.63-11.35 137.36-10.28 137.08-9.2 136.98-8L136.98-8Q136.93-7.4 137.28-7.55 137.63-7.7 137.88-8L137.88-8Q138.48-8.75 138.98-9.47 139.48-10.2 140.01-10.98 140.53-11.75 141.11-12.63 141.68-13.5 142.38-14.5L142.38-14.5Q143.13-15.55 143.81-16.57 144.48-17.6 145.01-18.5 145.53-19.4 145.91-20.15 146.28-20.9 146.43-21.35ZM145.33-17.4L145.33-17.4Q143.53-13.9 141.63-10.83 139.73-7.75 137.28-5.2L137.28-5.2Q135.73-3.55 135.43-5.7L135.43-5.7Q135.33-7.4 135.68-9.25 136.03-11.1 136.73-12.75L136.73-12.75Q137.38-14.35 138.33-15.85 139.28-17.35 140.53-18.6 141.78-19.85 143.31-20.7 144.83-21.55 146.58-21.85L146.58-21.85Q147.18-23.95 147.73-25.98 148.28-28 148.63-29.95 148.98-31.9 149.01-33.73 149.03-35.55 148.68-37.2L148.68-37.2Q148.58-37.5 148.63-37.5L148.63-37.5Q148.73-37.55 148.81-37.4 148.88-37.25 148.88-37.2L148.88-37.2Q150.08-34.8 150.06-32.05 150.03-29.3 149.38-26.35 148.73-23.4 147.76-20.35 146.78-17.3 146.08-14.25L146.08-14.25Q145.63-12.3 145.56-10.08 145.48-7.85 145.98-5.7L145.98-5.7Q146.48-3.45 147.83-1.88 149.18-0.3 150.93-0.15L150.93-0.15Q151.33-0.1 151.33 0L151.33 0Q151.33 0.1 151.21 0.13 151.08 0.15 150.98 0.15L150.98 0.15Q149.93 0.15 148.91-0.25 147.88-0.65 146.98-1.4 146.08-2.15 145.41-3.18 144.73-4.2 144.43-5.5L144.43-5.5Q144.33-5.9 144.33-6.15L144.33-6.15Q142.93-3.5 140.96-1.88 138.98-0.25 135.98 0L135.98 0Q133.73 0.15 132.56-1.05 131.38-2.25 130.93-3.95 130.48-5.65 130.63-7.53 130.78-9.4 131.18-10.6L131.18-10.6Q132.33-14.05 134.08-16.68 135.83-19.3 137.58-20.35L137.58-20.35Q137.68-20.45 137.88-20.53 138.08-20.6 138.13-20.55L138.13-20.55Q138.23-20.5 138.08-20.35 137.93-20.2 137.88-20.15L137.88-20.15Q135.18-17.45 133.71-13.98 132.23-10.5 132.13-6.9L132.13-6.9Q132.08-6 132.18-4.95 132.28-3.9 132.66-2.98 133.03-2.05 133.73-1.43 134.43-0.8 135.63-0.8L135.63-0.8Q137.33-0.75 138.86-1.83 140.38-2.9 141.51-4.48 142.63-6.05 143.33-7.85 144.03-9.65 144.13-11.15L144.13-11.15Q143.78-10.75 143.53-10.33 143.28-9.9 142.88-9.4L142.88-9.4Q142.83-9.3 142.58-9.08 142.33-8.85 142.18-8.9L142.18-8.9Q142.08-8.95 142.28-9.47 142.48-10 142.78-10.63 143.08-11.25 143.38-11.83 143.68-12.4 143.78-12.6L143.78-12.6Q144.33-13.75 144.63-14.9 144.93-16.05 145.33-17.4ZM152.28-1.15L152.28-1.15Q152.28-1.05 152.03-0.95L152.03-0.95Q151.88-0.9 151.78-0.9L151.78-0.9Q150.83-0.8 150.01-1 149.18-1.2 148.33-2.05L148.33-2.05Q147.88-2.5 147.56-3.4 147.23-4.3 147.06-5.15 146.88-6 146.91-6.65 146.93-7.3 147.13-7.25L147.13-7.25Q147.18-7.3 147.31-7.05 147.43-6.8 147.53-6.48 147.63-6.15 147.73-5.83 147.83-5.5 147.88-5.35L147.88-5.35Q148.13-4.55 148.48-3.9 148.83-3.25 149.33-2.75L149.33-2.75Q150.53-1.35 151.93-1.3L151.93-1.3Q152.03-1.3 152.16-1.28 152.28-1.25 152.28-1.15ZM145.03-22.25L145.03-22.25Q145.03-22.2 144.96-22.15 144.88-22.1 144.58-22L144.58-22Q143.93-21.75 142.98-21.18 142.03-20.6 140.98-19.75 139.93-18.9 138.91-17.78 137.88-16.65 137.13-15.35L137.13-15.35Q136.38-14 135.86-12.73 135.33-11.45 135.03-10.38 134.73-9.3 134.61-8.55 134.48-7.8 134.43-7.55L134.43-7.55Q134.38-6.7 134.38-5.88 134.38-5.05 134.61-4.38 134.83-3.7 135.33-3.35 135.83-3 136.83-3.15L136.83-3.15Q136.93-3.15 137.46-3.38 137.98-3.6 138.08-3.55L138.08-3.55Q138.13-3.5 138.03-3.35 137.93-3.2 137.73-3.03 137.53-2.85 137.36-2.73 137.18-2.6 137.13-2.55L137.13-2.55Q136.68-2.3 136.13-2.18 135.58-2.05 135.06-2.15 134.53-2.25 134.08-2.58 133.63-2.9 133.43-3.5L133.43-3.5Q132.88-5.35 132.93-7.1L132.93-7.1Q133.03-8.85 133.38-10.58 133.73-12.3 134.58-14.05L134.58-14.05Q135.08-15.4 136.16-16.85 137.23-18.3 138.63-19.5 140.03-20.7 141.56-21.5 143.08-22.3 144.43-22.35L144.43-22.35Q144.63-22.35 144.83-22.35 145.03-22.35 145.03-22.25Z" opacity="1" transform="matrix(1,0,0,1,0,0)" fill="black" class="wordmark-text-0" id="SvgjsPath3951"></path></svg></g></svg></g><g transform="matrix(1,0,0,1,0,98.50418752023943)"><svg viewBox="0 0 213.15844122715714 21.457008653329726" height="21.457008653329726" width="213.15844122715714"><g transform="matrix(1,0,0,1,0,0)"><svg width="213.15844122715714" viewBox="2.05 -37.5 377.46999999999997 38" height="21.457008653329726" data-palette-color="#000000"><path d="M25.05-15.45L25.05-15.45 25.05-19.15Q25.05-28.3 24.15-30.7L24.15-30.7Q23.15-33.45 21.3-34.1L21.3-34.1Q20.25-34.5 18.75-34.5 17.25-34.5 16.18-34.1 15.1-33.7 14.4-32.7 13.7-31.7 13.28-30.6 12.85-29.5 12.6-27.5L12.6-27.5Q12.3-24.6 12.3-18.95L12.3-18.95 12.3-15.35Q12.3-9.25 12.78-6.68 13.25-4.1 13.95-3L13.95-3Q15.5-0.55 18.75-0.55L18.75-0.55Q22.7-0.55 23.88-3.88 25.05-7.2 25.05-15.45ZM18.65 0.5Q10.3 0.5 6.18-4.03 2.05-8.55 2.05-17.13 2.05-25.7 6.48-30.63 10.9-35.55 19-35.55 27.1-35.55 31.23-30.88 35.35-26.2 35.35-17.6 35.35-9 31.18-4.25 27 0.5 18.65 0.5ZM54.6-22.4L54.6-22.4Q52.75-22.4 51.35-20 49.95-17.6 49.95-14.3L49.95-14.3 49.95-0.9 53.5-0.9 53.5 0 37.9 0 37.9-0.9 40.65-0.9 40.65-22.9 37.9-22.9 37.9-23.8 49.95-23.8 49.95-19Q50.6-21.55 52.45-22.93 54.3-24.3 56.65-24.3 59-24.3 60.47-22.98 61.95-21.65 61.95-19.23 61.95-16.8 60.85-15.5 59.75-14.2 57.47-14.2 55.2-14.2 54.12-15.7 53.05-17.2 53.85-19.85L53.85-19.85 55.65-19.85Q56.9-22.4 54.6-22.4ZM72.8-10.35Q72.8-5.1 73.34-3.38 73.9-1.65 75.37-1.65 76.84-1.65 77.92-2.95 79-4.25 79-6.8L79-6.8 79-17.7Q79-19.85 78.15-21.35 77.3-22.85 75.65-22.85 74-22.85 73.4-20.65 72.8-18.45 72.8-12.95L72.8-12.95 72.8-10.35ZM90.75 0L79.65 0 79.09-3.5Q77.4 0.5 72.2 0.5L72.2 0.5Q67.9 0.5 65.52-2.6 63.15-5.7 63.15-11.85L63.15-11.85Q63.15-24.3 73.05-24.3L73.05-24.3Q77.45-24.3 78.84-21.85L78.84-21.85 78.84-36.6 75.8-36.6 75.8-37.5 88.3-37.5 88.3-0.9 90.75-0.9 90.75 0ZM105.19 0.5Q98.74 0.5 95.52-2.83 92.29-6.15 92.29-12.08 92.29-18 95.92-21.15 99.54-24.3 105.14-24.3L105.14-24.3Q116.49-24.3 116.04-12.9L116.04-12.9 101.94-12.9 101.94-10.95Q101.94-6.05 103.19-3.55 104.44-1.05 107.54-1.05L107.54-1.05Q113.34-1.05 115.14-7.25L115.14-7.25 116.04-7.1Q115.09-3.5 112.62-1.5 110.14 0.5 105.19 0.5L105.19 0.5ZM101.99-16.35L101.99-13.9 107.14-13.9 107.14-16.35Q107.14-20.4 106.67-21.88 106.19-23.35 104.77-23.35 103.34-23.35 102.67-21.78 101.99-20.2 101.99-16.35L101.99-16.35ZM134.54-22.4L134.54-22.4Q132.69-22.4 131.29-20 129.89-17.6 129.89-14.3L129.89-14.3 129.89-0.9 133.44-0.9 133.44 0 117.84 0 117.84-0.9 120.59-0.9 120.59-22.9 117.84-22.9 117.84-23.8 129.89-23.8 129.89-19Q130.54-21.55 132.39-22.93 134.24-24.3 136.59-24.3 138.94-24.3 140.42-22.98 141.89-21.65 141.89-19.23 141.89-16.8 140.79-15.5 139.69-14.2 137.42-14.2 135.14-14.2 134.06-15.7 132.99-17.2 133.79-19.85L133.79-19.85 135.59-19.85Q136.84-22.4 134.54-22.4ZM164.14-34.2L170.94-18.55 178.04-34.2 172.99-34.2 172.99-35 182.84-35 182.84-34.2 179.54-34.2 171.99-17.5 171.99-0.95 175.04-0.95 175.04 0 159.19 0 159.19-0.95 162.24-0.95 162.24-16.55 153.74-34.2 151.39-34.2 151.39-35 167.39-35 167.39-34.2 164.14-34.2ZM195.03-9.85L195.03-9.85 195.03-14.1Q195.03-18.95 194.51-21.18 193.98-23.4 192.08-23.4L192.08-23.4Q190.98-23.4 190.31-22.78 189.63-22.15 189.33-20.7L189.33-20.7Q188.88-18.45 188.88-13.85L188.88-13.85 188.88-9.95Q188.88-4.5 189.21-3.4 189.53-2.3 189.88-1.6L189.88-1.6Q190.43-0.4 192.03-0.4L192.03-0.4Q193.98-0.4 194.58-2.65L194.58-2.65Q195.03-4.25 195.03-9.85ZM191.93 0.5Q185.68 0.5 182.48-2.7 179.28-5.9 179.28-11.88 179.28-17.85 182.71-21.08 186.13-24.3 192.33-24.3 198.53-24.3 201.58-21.33 204.63-18.35 204.63-12.25L204.63-12.25Q204.63 0.5 191.93 0.5L191.93 0.5ZM235.28-0.9L235.28 0 223.88 0 223.33-3.65Q222.53-1.65 220.96-0.58 219.38 0.5 216.28 0.5L216.28 0.5Q208.53 0.5 208.53-7.85L208.53-7.85 208.53-22.9 205.73-22.9 205.73-23.8 217.83-23.8 217.83-6.65Q217.83-3.65 218.26-2.7 218.68-1.75 219.96-1.75 221.23-1.75 222.23-3.3 223.23-4.85 223.23-7.6L223.23-7.6 223.23-22.9 220.93-22.9 220.93-23.8 232.53-23.8 232.53-0.9 235.28-0.9ZM252.98-22.4L252.98-22.4Q251.13-22.4 249.73-20 248.33-17.6 248.33-14.3L248.33-14.3 248.33-0.9 251.88-0.9 251.88 0 236.28 0 236.28-0.9 239.03-0.9 239.03-22.9 236.28-22.9 236.28-23.8 248.33-23.8 248.33-19Q248.98-21.55 250.83-22.93 252.68-24.3 255.03-24.3 257.38-24.3 258.85-22.98 260.33-21.65 260.33-19.23 260.33-16.8 259.23-15.5 258.13-14.2 255.85-14.2 253.58-14.2 252.5-15.7 251.43-17.2 252.23-19.85L252.23-19.85 254.03-19.85Q255.28-22.4 252.98-22.4ZM270.57-33.9L270.57-35 296.57-35 297.07-24.6 296.17-24.6Q294.32-30 291.9-31.95 289.47-33.9 284.67-33.9L284.67-33.9 283.27-33.9 283.27-17.65 285.52-17.65Q287.92-17.65 289.52-19.4 291.12-21.15 291.72-24.2L291.72-24.2 292.47-24.2 292.47-9.4 291.62-9.4Q290.82-13.15 289.4-14.75 287.97-16.35 285.52-16.35L285.52-16.35 283.27-16.35 283.27-1.1 289.47-1.1 289.47 0 270.57 0 270.57-1.1 273.52-1.1 273.52-33.9 270.57-33.9ZM313.27-9.85L313.27-9.85 313.27-14.1Q313.27-18.95 312.75-21.18 312.22-23.4 310.32-23.4L310.32-23.4Q309.22-23.4 308.55-22.78 307.87-22.15 307.57-20.7L307.57-20.7Q307.12-18.45 307.12-13.85L307.12-13.85 307.12-9.95Q307.12-4.5 307.45-3.4 307.77-2.3 308.12-1.6L308.12-1.6Q308.67-0.4 310.27-0.4L310.27-0.4Q312.22-0.4 312.82-2.65L312.82-2.65Q313.27-4.25 313.27-9.85ZM310.17 0.5Q303.92 0.5 300.72-2.7 297.52-5.9 297.52-11.88 297.52-17.85 300.95-21.08 304.37-24.3 310.57-24.3 316.77-24.3 319.82-21.33 322.87-18.35 322.87-12.25L322.87-12.25Q322.87 0.5 310.17 0.5L310.17 0.5ZM340.42-9.85L340.42-9.85 340.42-14.1Q340.42-18.95 339.89-21.18 339.37-23.4 337.47-23.4L337.47-23.4Q336.37-23.4 335.69-22.78 335.02-22.15 334.72-20.7L334.72-20.7Q334.27-18.45 334.27-13.85L334.27-13.85 334.27-9.95Q334.27-4.5 334.59-3.4 334.92-2.3 335.27-1.6L335.27-1.6Q335.82-0.4 337.42-0.4L337.42-0.4Q339.37-0.4 339.97-2.65L339.97-2.65Q340.42-4.25 340.42-9.85ZM337.32 0.5Q331.07 0.5 327.87-2.7 324.67-5.9 324.67-11.88 324.67-17.85 328.09-21.08 331.52-24.3 337.72-24.3 343.92-24.3 346.97-21.33 350.02-18.35 350.02-12.25L350.02-12.25Q350.02 0.5 337.32 0.5L337.32 0.5ZM361.56-10.35Q361.56-5.1 362.12-3.38 362.67-1.65 364.14-1.65 365.62-1.65 366.69-2.95 367.77-4.25 367.77-6.8L367.77-6.8 367.77-17.7Q367.77-19.85 366.92-21.35 366.06-22.85 364.42-22.85 362.77-22.85 362.17-20.65 361.56-18.45 361.56-12.95L361.56-12.95 361.56-10.35ZM379.52 0L368.42 0 367.87-3.5Q366.17 0.5 360.97 0.5L360.97 0.5Q356.67 0.5 354.29-2.6 351.92-5.7 351.92-11.85L351.92-11.85Q351.92-24.3 361.81-24.3L361.81-24.3Q366.22-24.3 367.62-21.85L367.62-21.85 367.62-36.6 364.56-36.6 364.56-37.5 377.06-37.5 377.06-0.9 379.52-0.9 379.52 0Z" opacity="1" transform="matrix(1,0,0,1,0,0)" fill="black" class="slogan-text-1" id="SvgjsPath3950"></path></svg></g></svg></g></svg></g></svg></g><g transform="matrix(1,0,0,1,40.71326227438702,0)"><svg viewBox="0 0 131.7319166783831 131.37080120148065" height="131.37080120148065" width="131.7319166783831"><g><svg xmlns="http://www.w3.org/2000/svg" xmlns:xlink="http://www.w3.org/1999/xlink" version="1.1" x="0" y="0" viewBox="10.603 10.71 78.795 78.57900000000001" enable-background="new 0 0 100 100" xml:space="preserve" height="131.37080120148065" width="131.7319166783831" class="icon-icon-0" data-fill-palette-color="quaternary" id="SvgjsSvg3949"><path d="M79.236 48.382L79.894 48.322C79.106 39.623 71.023 32.886 61.43 32.886L61.168 32.887C56.553 32.958 52.241 34.54 48.895 37.333A20 20 0 0 0 40.74 35.698C36.807 35.751 33.167 36.891 30.179 38.828L23.373 10.71 20.457 11.416 27.588 40.876A16.8 16.8 0 0 0 24.349 45.07L13.462 21.673 10.742 22.939 22.581 48.382H10.603V49.882C10.603 71.611 28.274 89.289 49.996 89.289 71.723 89.289 89.398 71.611 89.398 49.882V48.382zM61.212 35.888L61.436 35.887C69.403 35.887 76.114 41.325 76.876 48.382H58.938C57.846 44.488 55.26 41.158 51.787 38.888 54.453 37.003 57.726 35.942 61.212 35.888M40.779 38.7C47.774 38.605 53.792 42.682 55.799 48.383H26.172C28.171 42.781 34.059 38.791 40.779 38.7M49.995 86.29C30.43 86.29 14.422 70.766 13.633 51.383H56.469L56.471 51.395 56.601 51.383H86.368C85.578 70.765 69.564 86.29 49.995 86.29" fill="black"></path></svg></g></svg></g><g></g></svg></g></svg></g></svg></g></svg></g><defs><mask></mask></defs></svg><rect width="333.90454557049503" height="333.90454557049503" fill="black" stroke="none" visibility="hidden"></rect></g></mask><linearGradient x1="0" x2="1" y1="0.5" y2="0.5" id="cf5f90aa-494e-47a8-b938-0a6528062693"><stop stop-color="#ffa62e" offset="0"></stop><stop stop-color="#f71b3d" offset="1"></stop></linearGradient></svg><rect width="333.90454557049503" height="333.90454557049503" fill="none" stroke="none" visibility="hidden"></rect></g></svg></g></svg>